<svg width="576" height="483" viewBox="0 0 576 483" fill="none" xmlns="http://www.w3.org/2000/svg">
<g filter="url(#filter0_d_23_295)">
<rect x="2" width="572" height="455" rx="23" fill="black"/>
</g>
<path d="M59.492 110H63.812C64.1 110 64.244 109.856 64.172 109.532L58.916 85.196C58.88 84.944 58.7 84.8 58.448 84.8H53.588C53.336 84.8 53.156 84.944 53.12 85.196L47.828 109.532C47.756 109.856 47.9 110 48.188 110H52.4C52.652 110 52.832 109.892 52.868 109.604L53.516 106.112C53.516 106.004 53.624 105.968 53.732 105.968H58.232C58.34 105.968 58.448 106.04 58.448 106.148L59.024 109.604C59.06 109.892 59.24 110 59.492 110ZM54.308 101.864L56 92.576C56.036 92.432 56.18 92.432 56.216 92.576L57.728 101.864C57.728 101.972 57.692 102.044 57.584 102.044H54.488C54.38 102.044 54.272 102.008 54.308 101.864ZM74.648 91.244C73.064 91.244 72.164 92.18 71.588 93.476C71.516 93.62 71.408 93.584 71.408 93.404V91.928C71.408 91.676 71.228 91.496 70.976 91.496H66.764C66.512 91.496 66.332 91.676 66.332 91.928V109.568C66.332 109.82 66.512 110 66.764 110H70.976C71.228 110 71.408 109.82 71.408 109.568V99.632C71.408 98.192 72.2 96.932 73.28 96.68C73.892 96.464 74.648 96.5 75.188 96.68C75.476 96.752 75.656 96.716 75.692 96.392L76.376 92.18C76.412 91.964 76.376 91.784 76.196 91.64C75.836 91.424 75.332 91.244 74.648 91.244ZM84.3809 110.288C88.6649 110.288 91.1849 107.984 91.1849 104.456V103.628C91.1849 103.376 91.0049 103.196 90.7529 103.196L86.5409 103.16C86.2889 103.16 86.1089 103.34 86.1089 103.592V104.06C86.1089 105.068 85.3889 105.932 84.3809 105.932C83.3369 105.932 82.6529 105.068 82.6529 103.844V97.652C82.6529 96.392 83.3369 95.564 84.3809 95.564C85.3889 95.564 86.1089 96.392 86.1089 97.436V97.868C86.1089 98.12 86.2529 98.3 86.5409 98.3L90.7529 98.12C91.0049 98.12 91.1849 97.94 91.1849 97.688V97.04C91.1849 93.656 88.6649 91.208 84.3809 91.208C80.1329 91.208 77.5769 93.656 77.5769 97.256V104.24C77.5769 107.984 80.1329 110.288 84.3809 110.288ZM102.078 91.208C101.034 91.208 99.7743 91.46 98.8383 92.576C98.6583 92.792 98.5143 92.792 98.5143 92.648V85.232C98.5143 84.98 98.3343 84.8 98.0823 84.8H93.8703C93.6183 84.8 93.4383 84.98 93.4383 85.232V109.568C93.4383 109.82 93.6183 110 93.8703 110H98.0823C98.3343 110 98.5143 109.82 98.5143 109.568V97.832C98.5143 96.392 99.1623 95.564 100.242 95.564C101.286 95.564 101.862 96.356 101.862 97.76V109.568C101.862 109.82 102.042 110 102.294 110H106.506C106.758 110 106.938 109.82 106.938 109.568V97.364C106.938 93.548 105.39 91.208 102.078 91.208ZM112.276 89.732C114.04 89.732 115.192 88.544 115.192 86.744C115.192 84.944 114.04 83.72 112.276 83.72C110.512 83.72 109.324 84.944 109.324 86.744C109.324 88.544 110.512 89.732 112.276 89.732ZM110.152 110H114.364C114.616 110 114.796 109.82 114.796 109.568V91.928C114.796 91.676 114.616 91.496 114.364 91.496H110.152C109.9 91.496 109.72 91.676 109.72 91.928V109.568C109.72 109.82 109.9 110 110.152 110ZM126.12 94.628V91.928C126.12 91.676 125.94 91.496 125.688 91.496H123.672C123.564 91.496 123.492 91.424 123.492 91.316V87.32C123.492 87.068 123.312 86.888 123.06 86.888H119.028C118.776 86.888 118.596 87.068 118.596 87.32V91.316C118.596 91.424 118.524 91.496 118.416 91.496H117.228C116.976 91.496 116.796 91.676 116.796 91.928V94.628C116.796 94.88 116.976 95.06 117.228 95.06H118.416C118.524 95.06 118.596 95.132 118.596 95.24V105.752C118.596 109.316 120.756 110 123.888 110H125.328C125.58 110 125.76 109.82 125.76 109.568V106.04C125.76 105.788 125.58 105.608 125.328 105.608H125.076C124.104 105.644 123.492 105.284 123.492 103.808V95.24C123.492 95.132 123.564 95.06 123.672 95.06H125.688C125.94 95.06 126.12 94.88 126.12 94.628ZM141.529 101.972V97.256C141.529 93.656 139.009 91.208 134.725 91.208C130.441 91.208 127.921 93.656 127.921 97.256V104.276C127.921 108.02 130.441 110.288 134.725 110.288C138.901 110.288 141.133 108.236 141.421 104.888C141.457 104.6 141.277 104.456 141.025 104.42L136.921 103.988C136.669 103.952 136.489 104.096 136.417 104.384C136.237 105.212 135.661 105.968 134.725 105.968C133.717 105.968 132.997 105.104 132.997 103.88V102.584C132.997 102.476 133.069 102.404 133.177 102.404H141.097C141.349 102.404 141.529 102.224 141.529 101.972ZM134.725 95.564C135.733 95.564 136.453 96.392 136.453 97.616V98.876C136.453 98.984 136.381 99.056 136.273 99.056H133.177C133.069 99.056 132.997 98.984 132.997 98.876V97.616C132.997 96.392 133.717 95.564 134.725 95.564ZM150.404 110.288C154.688 110.288 157.208 107.984 157.208 104.456V103.628C157.208 103.376 157.028 103.196 156.776 103.196L152.564 103.16C152.312 103.16 152.132 103.34 152.132 103.592V104.06C152.132 105.068 151.412 105.932 150.404 105.932C149.36 105.932 148.676 105.068 148.676 103.844V97.652C148.676 96.392 149.36 95.564 150.404 95.564C151.412 95.564 152.132 96.392 152.132 97.436V97.868C152.132 98.12 152.276 98.3 152.564 98.3L156.776 98.12C157.028 98.12 157.208 97.94 157.208 97.688V97.04C157.208 93.656 154.688 91.208 150.404 91.208C146.156 91.208 143.6 93.656 143.6 97.256V104.24C143.6 107.984 146.156 110.288 150.404 110.288ZM167.675 94.628V91.928C167.675 91.676 167.495 91.496 167.243 91.496H165.227C165.119 91.496 165.047 91.424 165.047 91.316V87.32C165.047 87.068 164.867 86.888 164.615 86.888H160.583C160.331 86.888 160.151 87.068 160.151 87.32V91.316C160.151 91.424 160.079 91.496 159.971 91.496H158.783C158.531 91.496 158.351 91.676 158.351 91.928V94.628C158.351 94.88 158.531 95.06 158.783 95.06H159.971C160.079 95.06 160.151 95.132 160.151 95.24V105.752C160.151 109.316 162.311 110 165.443 110H166.883C167.135 110 167.315 109.82 167.315 109.568V106.04C167.315 105.788 167.135 105.608 166.883 105.608H166.631C165.659 105.644 165.047 105.284 165.047 103.808V95.24C165.047 95.132 165.119 95.06 165.227 95.06H167.243C167.495 95.06 167.675 94.88 167.675 94.628ZM178.007 91.928V103.664C178.007 105.068 177.359 105.932 176.279 105.932C175.235 105.932 174.659 105.176 174.659 103.772V91.928C174.659 91.676 174.479 91.496 174.227 91.496H170.015C169.763 91.496 169.583 91.676 169.583 91.928V104.888C169.583 108.776 171.923 110.252 174.551 110.252C175.847 110.252 176.999 109.964 177.791 108.884C177.899 108.74 178.007 108.812 178.007 108.956V109.568C178.007 109.82 178.187 110 178.439 110H182.651C182.903 110 183.083 109.82 183.083 109.568V91.928C183.083 91.676 182.903 91.496 182.651 91.496H178.439C178.187 91.496 178.007 91.676 178.007 91.928ZM194.109 91.244C192.525 91.244 191.625 92.18 191.049 93.476C190.977 93.62 190.869 93.584 190.869 93.404V91.928C190.869 91.676 190.689 91.496 190.437 91.496H186.225C185.973 91.496 185.793 91.676 185.793 91.928V109.568C185.793 109.82 185.973 110 186.225 110H190.437C190.689 110 190.869 109.82 190.869 109.568V99.632C190.869 98.192 191.661 96.932 192.741 96.68C193.353 96.464 194.109 96.5 194.649 96.68C194.937 96.752 195.117 96.716 195.153 96.392L195.837 92.18C195.873 91.964 195.837 91.784 195.657 91.64C195.297 91.424 194.793 91.244 194.109 91.244ZM204.02 91.208C200.204 91.208 197.468 93.44 197.216 96.968C197.216 97.256 197.396 97.4 197.648 97.4L201.968 97.436C202.22 97.436 202.4 97.292 202.436 97.004C202.58 96.104 203.156 95.564 203.984 95.564C205.028 95.564 205.82 96.464 205.82 97.796V98.696C205.82 98.804 205.748 98.876 205.64 98.876H203.984C199.844 98.876 196.784 99.92 196.784 104.744C196.784 109.604 199.88 110.288 201.932 110.288C203.588 110.252 204.776 109.748 205.604 108.704C205.712 108.56 205.82 108.632 205.82 108.776V109.568C205.82 109.82 206 110 206.252 110H210.464C210.716 110 210.896 109.82 210.896 109.568V97.22C210.896 93.584 208.088 91.208 204.02 91.208ZM203.624 106.364C202.724 106.364 202.004 105.788 202.004 104.528C202.004 103.196 202.868 102.44 204.164 102.44H205.64C205.748 102.44 205.82 102.512 205.82 102.62V104.312C205.82 105.644 204.668 106.364 203.624 106.364ZM213.679 110H217.891C218.143 110 218.323 109.82 218.323 109.568V85.232C218.323 84.98 218.143 84.8 217.891 84.8H213.679C213.427 84.8 213.247 84.98 213.247 85.232V109.568C213.247 109.82 213.427 110 213.679 110ZM228.77 110H235.286C239.678 110 242.522 107.228 242.522 103.016V91.784C242.522 87.572 239.678 84.8 235.286 84.8H228.77C228.518 84.8 228.338 84.98 228.338 85.232V109.568C228.338 109.82 228.518 110 228.77 110ZM233.414 105.464V89.336C233.414 89.228 233.486 89.156 233.594 89.156H235.178C236.582 89.156 237.446 90.308 237.446 92.108V102.692C237.41 104.456 236.51 105.572 235.214 105.608L233.594 105.644C233.486 105.644 233.414 105.572 233.414 105.464ZM253.523 91.244C251.939 91.244 251.039 92.18 250.463 93.476C250.391 93.62 250.283 93.584 250.283 93.404V91.928C250.283 91.676 250.103 91.496 249.851 91.496H245.639C245.387 91.496 245.207 91.676 245.207 91.928V109.568C245.207 109.82 245.387 110 245.639 110H249.851C250.103 110 250.283 109.82 250.283 109.568V99.632C250.283 98.192 251.075 96.932 252.155 96.68C252.767 96.464 253.523 96.5 254.063 96.68C254.351 96.752 254.531 96.716 254.567 96.392L255.251 92.18C255.287 91.964 255.251 91.784 255.071 91.64C254.711 91.424 254.207 91.244 253.523 91.244ZM263.434 91.208C259.618 91.208 256.882 93.44 256.63 96.968C256.63 97.256 256.81 97.4 257.062 97.4L261.382 97.436C261.634 97.436 261.814 97.292 261.85 97.004C261.994 96.104 262.57 95.564 263.398 95.564C264.442 95.564 265.234 96.464 265.234 97.796V98.696C265.234 98.804 265.162 98.876 265.054 98.876H263.398C259.258 98.876 256.198 99.92 256.198 104.744C256.198 109.604 259.294 110.288 261.346 110.288C263.002 110.252 264.19 109.748 265.018 108.704C265.126 108.56 265.234 108.632 265.234 108.776V109.568C265.234 109.82 265.414 110 265.666 110H269.878C270.13 110 270.31 109.82 270.31 109.568V97.22C270.31 93.584 267.502 91.208 263.434 91.208ZM263.038 106.364C262.138 106.364 261.418 105.788 261.418 104.528C261.418 103.196 262.282 102.44 263.578 102.44H265.054C265.162 102.44 265.234 102.512 265.234 102.62V104.312C265.234 105.644 264.082 106.364 263.038 106.364ZM275.877 110H279.801C280.053 110 280.233 109.892 280.269 109.604L281.781 100.46C281.817 100.316 281.961 100.316 281.997 100.46L283.545 109.604C283.581 109.892 283.761 110 284.013 110H288.117C288.369 110 288.549 109.856 288.585 109.604L292.437 92C292.509 91.676 292.365 91.532 292.077 91.532L288.117 91.496C287.865 91.496 287.685 91.604 287.649 91.892L286.101 102.44C286.065 102.62 285.921 102.62 285.885 102.44L284.265 91.892C284.229 91.604 284.049 91.496 283.797 91.496H280.197C279.945 91.496 279.765 91.604 279.729 91.892L278.145 102.44C278.109 102.62 277.965 102.62 277.929 102.44L276.417 91.892C276.381 91.604 276.201 91.496 275.949 91.496H271.953C271.665 91.496 271.485 91.64 271.557 91.964L275.409 109.604C275.445 109.856 275.625 110 275.877 110ZM297.127 89.732C298.891 89.732 300.043 88.544 300.043 86.744C300.043 84.944 298.891 83.72 297.127 83.72C295.363 83.72 294.175 84.944 294.175 86.744C294.175 88.544 295.363 89.732 297.127 89.732ZM295.003 110H299.215C299.467 110 299.647 109.82 299.647 109.568V91.928C299.647 91.676 299.467 91.496 299.215 91.496H295.003C294.751 91.496 294.571 91.676 294.571 91.928V109.568C294.571 109.82 294.751 110 295.003 110ZM311.188 91.208C310.144 91.208 308.884 91.46 307.948 92.576C307.768 92.792 307.624 92.792 307.624 92.648V91.928C307.624 91.676 307.444 91.496 307.192 91.496H302.98C302.728 91.496 302.548 91.676 302.548 91.928V109.568C302.548 109.82 302.728 110 302.98 110H307.192C307.444 110 307.624 109.82 307.624 109.568V97.832C307.624 96.392 308.272 95.564 309.352 95.564C310.396 95.564 310.972 96.356 310.972 97.76V109.568C310.972 109.82 311.152 110 311.404 110H315.616C315.868 110 316.048 109.82 316.048 109.568V97.364C316.048 93.548 314.5 91.208 311.188 91.208ZM326.893 91.928V92.756C326.893 92.9 326.785 92.972 326.677 92.828C325.741 91.496 324.373 91.208 323.329 91.208C320.053 91.208 318.397 93.404 318.397 97.256V104.096C318.397 107.768 319.945 110.144 323.329 110.144C324.265 110.144 325.705 109.856 326.677 108.596C326.785 108.452 326.893 108.452 326.893 108.596C326.893 111.44 326.245 113.204 321.817 113.024C321.529 112.988 321.349 113.132 321.349 113.42V116.948C321.349 117.2 321.493 117.38 321.781 117.416C330.097 117.956 331.969 114.212 331.969 109.136V91.928C331.969 91.676 331.789 91.496 331.537 91.496H327.325C327.073 91.496 326.893 91.676 326.893 91.928ZM325.165 105.752C324.157 105.752 323.473 104.924 323.473 103.7V97.616C323.473 96.392 324.157 95.564 325.165 95.564C326.173 95.564 326.893 96.392 326.893 97.616V103.7C326.893 104.924 326.173 105.752 325.165 105.752Z" fill="white"/>
<path d="M58.488 169H60.152C60.376 169 60.472 168.84 60.44 168.648L55.576 146.888C55.544 146.696 55.416 146.6 55.224 146.6H53.304C53.112 146.6 52.984 146.696 52.952 146.888L48.12 168.648C48.088 168.84 48.184 169 48.408 169H50.04C50.232 169 50.36 168.904 50.392 168.712L51.224 164.744C51.224 164.68 51.32 164.616 51.384 164.616H57.176C57.24 164.616 57.336 164.68 57.336 164.744L58.136 168.712C58.168 168.904 58.296 169 58.488 169ZM51.672 162.632L54.232 150.312C54.264 150.184 54.328 150.184 54.36 150.312L56.888 162.632C56.888 162.696 56.856 162.76 56.792 162.76H51.768C51.704 162.76 51.672 162.696 51.672 162.632ZM69.2745 152.584C67.9945 152.584 66.7785 153.064 65.9465 154.216C65.8825 154.312 65.7865 154.28 65.7865 154.184V153.128C65.7865 152.936 65.6585 152.808 65.4665 152.808H63.8345C63.6425 152.808 63.5145 152.936 63.5145 153.128V168.68C63.5145 168.872 63.6425 169 63.8345 169H65.4665C65.6585 169 65.7865 168.872 65.7865 168.68V158.024C65.7865 155.88 66.8425 154.568 68.5385 154.568C70.1705 154.568 71.0985 155.784 71.0985 157.864V168.68C71.0985 168.872 71.2265 169 71.4185 169H73.0505C73.2425 169 73.3705 168.872 73.3705 168.68V157.672C73.3705 154.472 71.8985 152.584 69.2745 152.584ZM88.1873 152.552C85.5312 152.552 83.4833 154.216 83.2593 156.776C83.2273 156.968 83.3553 157.096 83.5473 157.096L85.3073 157.128C85.4993 157.128 85.6273 157.032 85.6593 156.808C85.7873 155.464 86.8433 154.536 88.1233 154.536C89.7873 154.536 90.8113 155.944 90.8113 158.056V159.304C90.8113 159.368 90.7473 159.432 90.6833 159.432H88.4753C85.3073 159.432 82.7793 160.84 82.7793 164.68C82.7793 168.488 85.3073 169.256 87.1313 169.256C88.5713 169.256 89.8193 168.808 90.6513 167.72C90.7473 167.624 90.8113 167.656 90.8113 167.752V168.68C90.8113 168.872 90.9392 169 91.1313 169H92.7633C92.9553 169 93.0833 168.872 93.0833 168.68V157.896C93.0833 154.664 91.1633 152.552 88.1873 152.552ZM87.6113 167.272C86.2033 167.272 85.1153 166.44 85.1153 164.488C85.1153 162.28 86.4913 161.256 88.4433 161.256H90.6833C90.7473 161.256 90.8113 161.32 90.8113 161.384V164.072C90.8113 166.216 89.2113 167.272 87.6113 167.272ZM102.112 152.648C100.576 152.648 99.6155 153.64 99.0715 155.08C99.0075 155.176 98.9115 155.176 98.9115 155.048V153.128C98.9115 152.936 98.7835 152.808 98.5915 152.808H96.9595C96.7675 152.808 96.6395 152.936 96.6395 153.128V168.68C96.6395 168.872 96.7675 169 96.9595 169H98.5915C98.7835 169 98.9115 168.872 98.9115 168.68V159.08C98.9115 156.904 99.9995 155.208 101.536 155.112C102.048 155.016 102.528 155.08 102.88 155.24C103.104 155.304 103.264 155.272 103.296 155.048L103.648 153.416C103.68 153.256 103.648 153.096 103.488 153C103.168 152.808 102.752 152.648 102.112 152.648ZM110.53 169.256C113.602 169.256 115.586 167.304 115.586 164.808V164.456C115.586 164.264 115.458 164.136 115.266 164.136L113.634 164.104C113.442 164.104 113.314 164.232 113.314 164.424V164.648C113.314 166.024 112.194 167.272 110.53 167.272C108.93 167.272 107.81 166.024 107.81 164.2V157.608C107.81 155.784 108.93 154.536 110.53 154.536C112.194 154.536 113.314 155.784 113.314 157.16V157.416C113.314 157.576 113.442 157.704 113.634 157.704L115.266 157.64C115.458 157.64 115.586 157.512 115.586 157.32V157C115.586 154.6 113.602 152.552 110.53 152.552C107.49 152.552 105.538 154.6 105.538 157.448V164.36C105.538 167.304 107.49 169.256 110.53 169.256ZM124.525 152.584C123.245 152.584 122.029 153.064 121.197 154.216C121.133 154.312 121.036 154.28 121.036 154.184V146.92C121.036 146.728 120.909 146.6 120.717 146.6H119.085C118.893 146.6 118.765 146.728 118.765 146.92V168.68C118.765 168.872 118.893 169 119.085 169H120.717C120.909 169 121.036 168.872 121.036 168.68V158.024C121.036 155.88 122.093 154.568 123.789 154.568C125.421 154.568 126.349 155.784 126.349 157.864V168.68C126.349 168.872 126.477 169 126.669 169H128.301C128.493 169 128.621 168.872 128.621 168.68V157.672C128.621 154.472 127.149 152.584 124.525 152.584ZM133.639 149.928C134.535 149.928 135.175 149.224 135.175 148.232C135.175 147.304 134.535 146.6 133.639 146.6C132.711 146.6 132.039 147.304 132.039 148.232C132.039 149.224 132.711 149.928 133.639 149.928ZM132.807 169H134.439C134.631 169 134.759 168.872 134.759 168.68V153.128C134.759 152.936 134.631 152.808 134.439 152.808H132.807C132.615 152.808 132.487 152.936 132.487 153.128V168.68C132.487 168.872 132.615 169 132.807 169ZM144.492 154.184V153.128C144.492 152.936 144.364 152.808 144.172 152.808H141.74C141.676 152.808 141.612 152.744 141.612 152.68V149.096C141.612 148.904 141.484 148.776 141.292 148.776H139.692C139.5 148.776 139.372 148.904 139.372 149.096V152.68C139.372 152.744 139.308 152.808 139.244 152.808H137.996C137.804 152.808 137.676 152.936 137.676 153.128V154.184C137.676 154.376 137.804 154.504 137.996 154.504H139.244C139.308 154.504 139.372 154.568 139.372 154.632V165.096C139.372 168.328 140.94 169 143.212 169H144.012C144.204 169 144.332 168.872 144.332 168.68V167.304C144.332 167.112 144.204 166.984 144.012 166.984H143.692C142.348 167.016 141.612 166.472 141.612 164.424V154.632C141.612 154.568 141.676 154.504 141.74 154.504H144.172C144.364 154.504 144.492 154.376 144.492 154.184ZM156.991 161.448V157.448C156.991 154.568 155.071 152.552 151.967 152.552C148.927 152.552 146.975 154.568 146.975 157.448V164.36C146.975 167.304 148.927 169.256 151.967 169.256C154.783 169.256 156.543 167.656 156.895 165.16C156.927 164.968 156.799 164.808 156.607 164.808L155.007 164.744C154.815 164.744 154.719 164.84 154.655 165.032C154.367 166.344 153.375 167.272 151.967 167.272C150.367 167.272 149.247 166.024 149.247 164.232V161.896C149.247 161.832 149.311 161.768 149.375 161.768H156.671C156.863 161.768 156.991 161.64 156.991 161.448ZM151.967 154.536C153.631 154.536 154.751 155.784 154.751 157.608V159.752C154.751 159.816 154.687 159.88 154.623 159.88H149.375C149.311 159.88 149.247 159.816 149.247 159.752V157.608C149.247 155.784 150.367 154.536 151.967 154.536ZM164.998 169.256C168.07 169.256 170.054 167.304 170.054 164.808V164.456C170.054 164.264 169.926 164.136 169.734 164.136L168.102 164.104C167.91 164.104 167.782 164.232 167.782 164.424V164.648C167.782 166.024 166.662 167.272 164.998 167.272C163.398 167.272 162.278 166.024 162.278 164.2V157.608C162.278 155.784 163.398 154.536 164.998 154.536C166.662 154.536 167.782 155.784 167.782 157.16V157.416C167.782 157.576 167.91 157.704 168.102 157.704L169.734 157.64C169.926 157.64 170.054 157.512 170.054 157.32V157C170.054 154.6 168.07 152.552 164.998 152.552C161.958 152.552 160.006 154.6 160.006 157.448V164.36C160.006 167.304 161.958 169.256 164.998 169.256ZM178.836 154.184V153.128C178.836 152.936 178.708 152.808 178.516 152.808H176.084C176.02 152.808 175.956 152.744 175.956 152.68V149.096C175.956 148.904 175.828 148.776 175.636 148.776H174.036C173.844 148.776 173.716 148.904 173.716 149.096V152.68C173.716 152.744 173.652 152.808 173.588 152.808H172.34C172.148 152.808 172.02 152.936 172.02 153.128V154.184C172.02 154.376 172.148 154.504 172.34 154.504H173.588C173.652 154.504 173.716 154.568 173.716 154.632V165.096C173.716 168.328 175.284 169 177.556 169H178.356C178.548 169 178.676 168.872 178.676 168.68V167.304C178.676 167.112 178.548 166.984 178.356 166.984H178.036C176.692 167.016 175.956 166.472 175.956 164.424V154.632C175.956 154.568 176.02 154.504 176.084 154.504H178.516C178.708 154.504 178.836 154.376 178.836 154.184ZM189.063 153.128V163.784C189.063 165.928 188.039 167.24 186.343 167.24C184.711 167.24 183.783 166.184 183.783 164.008V153.128C183.783 152.936 183.655 152.808 183.463 152.808H181.831C181.639 152.808 181.511 152.936 181.511 153.128V164.52C181.511 167.784 183.271 169.224 185.703 169.224C187.079 169.224 188.199 168.744 188.903 167.56C188.967 167.464 189.063 167.464 189.063 167.592V168.68C189.063 168.872 189.191 169 189.383 169H191.015C191.207 169 191.335 168.872 191.335 168.68V153.128C191.335 152.936 191.207 152.808 191.015 152.808H189.383C189.191 152.808 189.063 152.936 189.063 153.128ZM200.705 152.648C199.169 152.648 198.209 153.64 197.665 155.08C197.601 155.176 197.505 155.176 197.505 155.048V153.128C197.505 152.936 197.377 152.808 197.185 152.808H195.553C195.361 152.808 195.233 152.936 195.233 153.128V168.68C195.233 168.872 195.361 169 195.553 169H197.185C197.377 169 197.505 168.872 197.505 168.68V159.08C197.505 156.904 198.593 155.208 200.129 155.112C200.641 155.016 201.121 155.08 201.473 155.24C201.697 155.304 201.857 155.272 201.889 155.048L202.241 153.416C202.273 153.256 202.241 153.096 202.081 153C201.761 152.808 201.345 152.648 200.705 152.648ZM209.25 152.552C206.594 152.552 204.546 154.216 204.322 156.776C204.29 156.968 204.418 157.096 204.61 157.096L206.37 157.128C206.562 157.128 206.69 157.032 206.722 156.808C206.85 155.464 207.906 154.536 209.186 154.536C210.85 154.536 211.874 155.944 211.874 158.056V159.304C211.874 159.368 211.81 159.432 211.746 159.432H209.538C206.37 159.432 203.842 160.84 203.842 164.68C203.842 168.488 206.37 169.256 208.194 169.256C209.634 169.256 210.882 168.808 211.714 167.72C211.81 167.624 211.874 167.656 211.874 167.752V168.68C211.874 168.872 212.002 169 212.194 169H213.826C214.018 169 214.146 168.872 214.146 168.68V157.896C214.146 154.664 212.226 152.552 209.25 152.552ZM208.674 167.272C207.266 167.272 206.178 166.44 206.178 164.488C206.178 162.28 207.554 161.256 209.506 161.256H211.746C211.81 161.256 211.874 161.32 211.874 161.384V164.072C211.874 166.216 210.274 167.272 208.674 167.272ZM217.83 169H219.462C219.654 169 219.782 168.872 219.782 168.68V146.92C219.782 146.728 219.654 146.6 219.462 146.6H217.83C217.638 146.6 217.51 146.728 217.51 146.92V168.68C217.51 168.872 217.638 169 217.83 169ZM237.25 146.92V154.024C237.25 154.12 237.186 154.184 237.09 154.088C236.354 153.064 235.234 152.552 233.922 152.552C231.33 152.552 229.698 154.536 229.602 157.352C229.57 158.536 229.57 159.624 229.57 160.808C229.57 161.992 229.57 163.176 229.602 164.36C229.73 167.208 231.362 169.256 233.922 169.256C235.234 169.256 236.354 168.712 237.09 167.688C237.186 167.592 237.25 167.656 237.25 167.752V168.68C237.25 168.872 237.378 169 237.57 169H239.202C239.394 169 239.522 168.872 239.522 168.68V146.92C239.522 146.728 239.394 146.6 239.202 146.6H237.57C237.378 146.6 237.25 146.728 237.25 146.92ZM234.594 167.272C232.93 167.272 231.81 165.96 231.842 164.072V160.904C231.842 160.072 231.81 158.856 231.842 157.736C231.81 155.816 232.962 154.536 234.594 154.536C236.13 154.536 237.25 155.816 237.25 157.736V164.072C237.25 165.992 236.13 167.272 234.594 167.272ZM248.893 152.648C247.357 152.648 246.397 153.64 245.853 155.08C245.789 155.176 245.693 155.176 245.693 155.048V153.128C245.693 152.936 245.565 152.808 245.373 152.808H243.741C243.549 152.808 243.421 152.936 243.421 153.128V168.68C243.421 168.872 243.549 169 243.741 169H245.373C245.565 169 245.693 168.872 245.693 168.68V159.08C245.693 156.904 246.781 155.208 248.317 155.112C248.829 155.016 249.309 155.08 249.661 155.24C249.885 155.304 250.045 155.272 250.077 155.048L250.429 153.416C250.461 153.256 250.429 153.096 250.269 153C249.949 152.808 249.533 152.648 248.893 152.648ZM257.437 152.552C254.781 152.552 252.733 154.216 252.509 156.776C252.477 156.968 252.605 157.096 252.797 157.096L254.557 157.128C254.749 157.128 254.877 157.032 254.909 156.808C255.037 155.464 256.093 154.536 257.373 154.536C259.037 154.536 260.061 155.944 260.061 158.056V159.304C260.061 159.368 259.997 159.432 259.933 159.432H257.725C254.557 159.432 252.029 160.84 252.029 164.68C252.029 168.488 254.557 169.256 256.381 169.256C257.821 169.256 259.069 168.808 259.901 167.72C259.997 167.624 260.061 167.656 260.061 167.752V168.68C260.061 168.872 260.189 169 260.381 169H262.013C262.205 169 262.333 168.872 262.333 168.68V157.896C262.333 154.664 260.413 152.552 257.437 152.552ZM256.861 167.272C255.453 167.272 254.365 166.44 254.365 164.488C254.365 162.28 255.741 161.256 257.693 161.256H259.933C259.997 161.256 260.061 161.32 260.061 161.384V164.072C260.061 166.216 258.461 167.272 256.861 167.272ZM268.262 169H269.83C270.022 169 270.15 168.904 270.182 168.712L272.486 157C272.518 156.872 272.582 156.872 272.614 157L274.982 168.712C275.014 168.904 275.142 169 275.334 169H276.966C277.158 169 277.286 168.904 277.318 168.712L280.71 153.192C280.742 152.968 280.646 152.84 280.422 152.84L278.886 152.808C278.694 152.808 278.566 152.904 278.534 153.096L276.166 165.576C276.134 165.672 276.07 165.672 276.038 165.576L273.67 153.096C273.638 152.904 273.51 152.808 273.318 152.808H271.878C271.686 152.808 271.558 152.904 271.526 153.096L269.19 165.544C269.158 165.64 269.094 165.64 269.062 165.544L266.726 153.096C266.694 152.904 266.566 152.808 266.374 152.808H264.806C264.582 152.808 264.486 152.936 264.518 153.16L267.91 168.712C267.942 168.904 268.07 169 268.262 169ZM284.733 149.928C285.629 149.928 286.269 149.224 286.269 148.232C286.269 147.304 285.629 146.6 284.733 146.6C283.805 146.6 283.133 147.304 283.133 148.232C283.133 149.224 283.805 149.928 284.733 149.928ZM283.901 169H285.533C285.725 169 285.853 168.872 285.853 168.68V153.128C285.853 152.936 285.725 152.808 285.533 152.808H283.901C283.709 152.808 283.581 152.936 283.581 153.128V168.68C283.581 168.872 283.709 169 283.901 169ZM295.65 152.584C294.37 152.584 293.154 153.064 292.322 154.216C292.258 154.312 292.161 154.28 292.161 154.184V153.128C292.161 152.936 292.034 152.808 291.842 152.808H290.21C290.018 152.808 289.89 152.936 289.89 153.128V168.68C289.89 168.872 290.018 169 290.21 169H291.842C292.034 169 292.161 168.872 292.161 168.68V158.024C292.161 155.88 293.218 154.568 294.914 154.568C296.546 154.568 297.474 155.784 297.474 157.864V168.68C297.474 168.872 297.602 169 297.794 169H299.426C299.618 169 299.746 168.872 299.746 168.68V157.672C299.746 154.472 298.274 152.584 295.65 152.584ZM310.812 153.128V154.12C310.812 154.248 310.748 154.28 310.652 154.152C309.916 153.064 308.7 152.552 307.452 152.552C304.732 152.552 303.1 154.504 303.1 157.448V164.2C303.1 167.08 304.7 169.096 307.452 169.096C308.668 169.096 309.884 168.584 310.652 167.464C310.748 167.368 310.812 167.432 310.812 167.528V168.488C310.812 171.688 309.756 173.544 306.204 173.448C306.012 173.448 305.884 173.576 305.884 173.768V175.144C305.884 175.336 305.98 175.464 306.204 175.496C311.42 175.72 313.084 172.936 313.084 168.68V153.128C313.084 152.936 312.956 152.808 312.764 152.808H311.132C310.94 152.808 310.812 152.936 310.812 153.128ZM308.124 167.112C306.524 167.112 305.372 165.864 305.372 164.072V157.608C305.372 155.784 306.524 154.536 308.124 154.536C309.724 154.536 310.812 155.784 310.812 157.608V164.072C310.812 165.864 309.724 167.112 308.124 167.112ZM327.749 169.256C330.821 169.256 332.805 167.304 332.805 164.36V157.448C332.805 154.568 330.821 152.552 327.749 152.552C324.677 152.552 322.725 154.568 322.725 157.448V164.36C322.725 167.304 324.677 169.256 327.749 169.256ZM327.749 167.272C326.117 167.272 324.997 166.024 324.997 164.232V157.608C324.997 155.784 326.117 154.536 327.749 154.536C329.381 154.536 330.533 155.784 330.533 157.608V164.232C330.533 166.024 329.381 167.272 327.749 167.272ZM341.799 152.648C340.263 152.648 339.303 153.64 338.759 155.08C338.695 155.176 338.599 155.176 338.599 155.048V153.128C338.599 152.936 338.471 152.808 338.279 152.808H336.647C336.455 152.808 336.327 152.936 336.327 153.128V168.68C336.327 168.872 336.455 169 336.647 169H338.279C338.471 169 338.599 168.872 338.599 168.68V159.08C338.599 156.904 339.687 155.208 341.223 155.112C341.735 155.016 342.215 155.08 342.567 155.24C342.791 155.304 342.951 155.272 342.983 155.048L343.335 153.416C343.367 153.256 343.335 153.096 343.175 153C342.855 152.808 342.439 152.648 341.799 152.648ZM356.812 152.552C354.156 152.552 352.108 154.216 351.884 156.776C351.852 156.968 351.98 157.096 352.172 157.096L353.932 157.128C354.124 157.128 354.252 157.032 354.284 156.808C354.412 155.464 355.468 154.536 356.748 154.536C358.412 154.536 359.436 155.944 359.436 158.056V159.304C359.436 159.368 359.372 159.432 359.308 159.432H357.1C353.932 159.432 351.404 160.84 351.404 164.68C351.404 168.488 353.932 169.256 355.756 169.256C357.196 169.256 358.444 168.808 359.276 167.72C359.372 167.624 359.436 167.656 359.436 167.752V168.68C359.436 168.872 359.564 169 359.756 169H361.388C361.58 169 361.708 168.872 361.708 168.68V157.896C361.708 154.664 359.788 152.552 356.812 152.552ZM356.236 167.272C354.828 167.272 353.74 166.44 353.74 164.488C353.74 162.28 355.116 161.256 357.068 161.256H359.308C359.372 161.256 359.436 161.32 359.436 161.384V164.072C359.436 166.216 357.836 167.272 356.236 167.272ZM370.737 152.648C369.201 152.648 368.241 153.64 367.697 155.08C367.633 155.176 367.536 155.176 367.536 155.048V153.128C367.536 152.936 367.409 152.808 367.217 152.808H365.585C365.393 152.808 365.265 152.936 365.265 153.128V168.68C365.265 168.872 365.393 169 365.585 169H367.217C367.409 169 367.536 168.872 367.536 168.68V159.08C367.536 156.904 368.625 155.208 370.161 155.112C370.673 155.016 371.153 155.08 371.505 155.24C371.729 155.304 371.889 155.272 371.921 155.048L372.273 153.416C372.305 153.256 372.273 153.096 372.113 153C371.793 152.808 371.377 152.648 370.737 152.648ZM379.155 169.256C382.227 169.256 384.211 167.304 384.211 164.808V164.456C384.211 164.264 384.083 164.136 383.891 164.136L382.259 164.104C382.067 164.104 381.939 164.232 381.939 164.424V164.648C381.939 166.024 380.819 167.272 379.155 167.272C377.555 167.272 376.435 166.024 376.435 164.2V157.608C376.435 155.784 377.555 154.536 379.155 154.536C380.819 154.536 381.939 155.784 381.939 157.16V157.416C381.939 157.576 382.067 157.704 382.259 157.704L383.891 157.64C384.083 157.64 384.211 157.512 384.211 157.32V157C384.211 154.6 382.227 152.552 379.155 152.552C376.115 152.552 374.163 154.6 374.163 157.448V164.36C374.163 167.304 376.115 169.256 379.155 169.256ZM393.15 152.584C391.87 152.584 390.654 153.064 389.822 154.216C389.758 154.312 389.661 154.28 389.661 154.184V146.92C389.661 146.728 389.534 146.6 389.342 146.6H387.71C387.518 146.6 387.39 146.728 387.39 146.92V168.68C387.39 168.872 387.518 169 387.71 169H389.342C389.534 169 389.661 168.872 389.661 168.68V158.024C389.661 155.88 390.718 154.568 392.414 154.568C394.046 154.568 394.974 155.784 394.974 157.864V168.68C394.974 168.872 395.102 169 395.294 169H396.926C397.118 169 397.246 168.872 397.246 168.68V157.672C397.246 154.472 395.774 152.584 393.15 152.584ZM402.264 149.928C403.16 149.928 403.8 149.224 403.8 148.232C403.8 147.304 403.16 146.6 402.264 146.6C401.336 146.6 400.664 147.304 400.664 148.232C400.664 149.224 401.336 149.928 402.264 149.928ZM401.432 169H403.064C403.256 169 403.384 168.872 403.384 168.68V153.128C403.384 152.936 403.256 152.808 403.064 152.808H401.432C401.24 152.808 401.112 152.936 401.112 153.128V168.68C401.112 168.872 401.24 169 401.432 169ZM413.117 154.184V153.128C413.117 152.936 412.989 152.808 412.797 152.808H410.365C410.301 152.808 410.237 152.744 410.237 152.68V149.096C410.237 148.904 410.109 148.776 409.917 148.776H408.317C408.125 148.776 407.997 148.904 407.997 149.096V152.68C407.997 152.744 407.933 152.808 407.869 152.808H406.621C406.429 152.808 406.301 152.936 406.301 153.128V154.184C406.301 154.376 406.429 154.504 406.621 154.504H407.869C407.933 154.504 407.997 154.568 407.997 154.632V165.096C407.997 168.328 409.565 169 411.837 169H412.637C412.829 169 412.957 168.872 412.957 168.68V167.304C412.957 167.112 412.829 166.984 412.637 166.984H412.317C410.973 167.016 410.237 166.472 410.237 164.424V154.632C410.237 154.568 410.301 154.504 410.365 154.504H412.797C412.989 154.504 413.117 154.376 413.117 154.184ZM425.616 161.448V157.448C425.616 154.568 423.696 152.552 420.592 152.552C417.552 152.552 415.6 154.568 415.6 157.448V164.36C415.6 167.304 417.552 169.256 420.592 169.256C423.408 169.256 425.168 167.656 425.52 165.16C425.552 164.968 425.424 164.808 425.232 164.808L423.632 164.744C423.44 164.744 423.344 164.84 423.28 165.032C422.992 166.344 422 167.272 420.592 167.272C418.992 167.272 417.872 166.024 417.872 164.232V161.896C417.872 161.832 417.936 161.768 418 161.768H425.296C425.488 161.768 425.616 161.64 425.616 161.448ZM420.592 154.536C422.256 154.536 423.376 155.784 423.376 157.608V159.752C423.376 159.816 423.312 159.88 423.248 159.88H418C417.936 159.88 417.872 159.816 417.872 159.752V157.608C417.872 155.784 418.992 154.536 420.592 154.536ZM433.623 169.256C436.695 169.256 438.679 167.304 438.679 164.808V164.456C438.679 164.264 438.551 164.136 438.359 164.136L436.727 164.104C436.535 164.104 436.407 164.232 436.407 164.424V164.648C436.407 166.024 435.287 167.272 433.623 167.272C432.023 167.272 430.903 166.024 430.903 164.2V157.608C430.903 155.784 432.023 154.536 433.623 154.536C435.287 154.536 436.407 155.784 436.407 157.16V157.416C436.407 157.576 436.535 157.704 436.727 157.704L438.359 157.64C438.551 157.64 438.679 157.512 438.679 157.32V157C438.679 154.6 436.695 152.552 433.623 152.552C430.583 152.552 428.631 154.6 428.631 157.448V164.36C428.631 167.304 430.583 169.256 433.623 169.256ZM447.461 154.184V153.128C447.461 152.936 447.333 152.808 447.141 152.808H444.709C444.645 152.808 444.581 152.744 444.581 152.68V149.096C444.581 148.904 444.453 148.776 444.261 148.776H442.661C442.469 148.776 442.341 148.904 442.341 149.096V152.68C442.341 152.744 442.277 152.808 442.213 152.808H440.965C440.773 152.808 440.645 152.936 440.645 153.128V154.184C440.645 154.376 440.773 154.504 440.965 154.504H442.213C442.277 154.504 442.341 154.568 442.341 154.632V165.096C442.341 168.328 443.909 169 446.181 169H446.981C447.173 169 447.301 168.872 447.301 168.68V167.304C447.301 167.112 447.173 166.984 446.981 166.984H446.661C445.317 167.016 444.581 166.472 444.581 164.424V154.632C444.581 154.568 444.645 154.504 444.709 154.504H447.141C447.333 154.504 447.461 154.376 447.461 154.184ZM449.843 153.224H451.027C451.219 153.224 451.347 153.128 451.347 152.904L451.603 146.984C451.603 146.792 451.475 146.664 451.283 146.664H449.587C449.395 146.664 449.267 146.792 449.267 146.984L449.523 152.904C449.523 153.128 449.651 153.224 449.843 153.224ZM457.926 169.16C460.902 169.16 462.79 167.464 462.79 164.808C462.79 161.8 460.358 160.776 458.502 159.976C456.838 159.272 455.366 158.664 455.366 157C455.366 155.624 456.326 154.504 457.894 154.504C459.462 154.504 460.486 155.592 460.486 157V157.256C460.486 157.416 460.614 157.512 460.806 157.512H462.278C462.47 157.512 462.598 157.384 462.598 157.192V157.096C462.598 154.44 460.806 152.648 457.862 152.648C455.046 152.648 453.19 154.312 453.19 157.064C453.19 160.104 455.462 161.064 457.254 161.8C458.886 162.504 460.518 163.112 460.518 164.904C460.518 166.344 459.526 167.4 457.958 167.4C456.326 167.4 455.238 166.312 455.238 164.968V164.712C455.238 164.552 455.11 164.456 454.918 164.456H453.382C453.19 164.456 453.062 164.584 453.062 164.776V165C453.062 167.496 454.95 169.16 457.926 169.16ZM56.312 184.92V192.024C56.312 192.12 56.248 192.184 56.152 192.088C55.416 191.064 54.296 190.552 52.984 190.552C50.392 190.552 48.76 192.536 48.664 195.352C48.632 196.536 48.632 197.624 48.632 198.808C48.632 199.992 48.632 201.176 48.664 202.36C48.792 205.208 50.424 207.256 52.984 207.256C54.296 207.256 55.416 206.712 56.152 205.688C56.248 205.592 56.312 205.656 56.312 205.752V206.68C56.312 206.872 56.44 207 56.632 207H58.264C58.456 207 58.584 206.872 58.584 206.68V184.92C58.584 184.728 58.456 184.6 58.264 184.6H56.632C56.44 184.6 56.312 184.728 56.312 184.92ZM53.656 205.272C51.992 205.272 50.872 203.96 50.904 202.072V198.904C50.904 198.072 50.872 196.856 50.904 195.736C50.872 193.816 52.024 192.536 53.656 192.536C55.192 192.536 56.312 193.816 56.312 195.736V202.072C56.312 203.992 55.192 205.272 53.656 205.272ZM67.9553 190.648C66.4193 190.648 65.4593 191.64 64.9153 193.08C64.8513 193.176 64.7552 193.176 64.7552 193.048V191.128C64.7552 190.936 64.6273 190.808 64.4353 190.808H62.8033C62.6113 190.808 62.4833 190.936 62.4833 191.128V206.68C62.4833 206.872 62.6113 207 62.8033 207H64.4353C64.6273 207 64.7552 206.872 64.7552 206.68V197.08C64.7552 194.904 65.8433 193.208 67.3793 193.112C67.8913 193.016 68.3713 193.08 68.7233 193.24C68.9473 193.304 69.1073 193.272 69.1393 193.048L69.4913 191.416C69.5233 191.256 69.4913 191.096 69.3313 191C69.0113 190.808 68.5953 190.648 67.9553 190.648ZM76.4998 190.552C73.8438 190.552 71.7958 192.216 71.5718 194.776C71.5398 194.968 71.6678 195.096 71.8598 195.096L73.6198 195.128C73.8118 195.128 73.9398 195.032 73.9718 194.808C74.0998 193.464 75.1558 192.536 76.4358 192.536C78.0998 192.536 79.1238 193.944 79.1238 196.056V197.304C79.1238 197.368 79.0598 197.432 78.9958 197.432H76.7878C73.6198 197.432 71.0918 198.84 71.0918 202.68C71.0918 206.488 73.6198 207.256 75.4438 207.256C76.8838 207.256 78.1318 206.808 78.9638 205.72C79.0598 205.624 79.1238 205.656 79.1238 205.752V206.68C79.1238 206.872 79.2517 207 79.4438 207H81.0758C81.2678 207 81.3958 206.872 81.3958 206.68V195.896C81.3958 192.664 79.4758 190.552 76.4998 190.552ZM75.9238 205.272C74.5158 205.272 73.4278 204.44 73.4278 202.488C73.4278 200.28 74.8038 199.256 76.7558 199.256H78.9958C79.0598 199.256 79.1238 199.32 79.1238 199.384V202.072C79.1238 204.216 77.5238 205.272 75.9238 205.272ZM87.3245 207H88.8925C89.0845 207 89.2125 206.904 89.2445 206.712L91.5485 195C91.5805 194.872 91.6445 194.872 91.6765 195L94.0445 206.712C94.0765 206.904 94.2045 207 94.3965 207H96.0285C96.2205 207 96.3485 206.904 96.3805 206.712L99.7725 191.192C99.8045 190.968 99.7085 190.84 99.4845 190.84L97.9485 190.808C97.7565 190.808 97.6285 190.904 97.5965 191.096L95.2285 203.576C95.1965 203.672 95.1325 203.672 95.1005 203.576L92.7325 191.096C92.7005 190.904 92.5725 190.808 92.3805 190.808H90.9405C90.7485 190.808 90.6205 190.904 90.5885 191.096L88.2525 203.544C88.2205 203.64 88.1565 203.64 88.1245 203.544L85.7885 191.096C85.7565 190.904 85.6285 190.808 85.4365 190.808H83.8685C83.6445 190.808 83.5485 190.936 83.5805 191.16L86.9725 206.712C87.0045 206.904 87.1325 207 87.3245 207ZM103.795 187.928C104.691 187.928 105.331 187.224 105.331 186.232C105.331 185.304 104.691 184.6 103.795 184.6C102.867 184.6 102.195 185.304 102.195 186.232C102.195 187.224 102.867 187.928 103.795 187.928ZM102.963 207H104.595C104.787 207 104.915 206.872 104.915 206.68V191.128C104.915 190.936 104.787 190.808 104.595 190.808H102.963C102.771 190.808 102.643 190.936 102.643 191.128V206.68C102.643 206.872 102.771 207 102.963 207ZM114.712 190.584C113.432 190.584 112.216 191.064 111.384 192.216C111.32 192.312 111.224 192.28 111.224 192.184V191.128C111.224 190.936 111.096 190.808 110.904 190.808H109.272C109.08 190.808 108.952 190.936 108.952 191.128V206.68C108.952 206.872 109.08 207 109.272 207H110.904C111.096 207 111.224 206.872 111.224 206.68V196.024C111.224 193.88 112.28 192.568 113.976 192.568C115.608 192.568 116.536 193.784 116.536 195.864V206.68C116.536 206.872 116.664 207 116.856 207H118.488C118.68 207 118.808 206.872 118.808 206.68V195.672C118.808 192.472 117.336 190.584 114.712 190.584ZM129.875 191.128V192.12C129.875 192.248 129.811 192.28 129.715 192.152C128.979 191.064 127.763 190.552 126.515 190.552C123.795 190.552 122.163 192.504 122.163 195.448V202.2C122.163 205.08 123.763 207.096 126.515 207.096C127.731 207.096 128.947 206.584 129.715 205.464C129.811 205.368 129.875 205.432 129.875 205.528V206.488C129.875 209.688 128.819 211.544 125.266 211.448C125.075 211.448 124.947 211.576 124.947 211.768V213.144C124.947 213.336 125.043 213.464 125.266 213.496C130.483 213.72 132.147 210.936 132.147 206.68V191.128C132.147 190.936 132.019 190.808 131.827 190.808H130.195C130.003 190.808 129.875 190.936 129.875 191.128ZM127.187 205.112C125.587 205.112 124.435 203.864 124.435 202.072V195.608C124.435 193.784 125.587 192.536 127.187 192.536C128.786 192.536 129.875 193.784 129.875 195.608V202.072C129.875 203.864 128.786 205.112 127.187 205.112ZM143.452 187.928C144.348 187.928 144.988 187.224 144.988 186.232C144.988 185.304 144.348 184.6 143.452 184.6C142.524 184.6 141.852 185.304 141.852 186.232C141.852 187.224 142.524 187.928 143.452 187.928ZM142.62 207H144.252C144.444 207 144.572 206.872 144.572 206.68V191.128C144.572 190.936 144.444 190.808 144.252 190.808H142.62C142.428 190.808 142.299 190.936 142.299 191.128V206.68C142.299 206.872 142.428 207 142.62 207ZM152.832 207.16C155.808 207.16 157.696 205.464 157.696 202.808C157.696 199.8 155.264 198.776 153.408 197.976C151.744 197.272 150.272 196.664 150.272 195C150.272 193.624 151.232 192.504 152.8 192.504C154.368 192.504 155.392 193.592 155.392 195V195.256C155.392 195.416 155.52 195.512 155.712 195.512H157.184C157.376 195.512 157.504 195.384 157.504 195.192V195.096C157.504 192.44 155.712 190.648 152.768 190.648C149.952 190.648 148.096 192.312 148.096 195.064C148.096 198.104 150.368 199.064 152.16 199.8C153.792 200.504 155.424 201.112 155.424 202.904C155.424 204.344 154.432 205.4 152.864 205.4C151.232 205.4 150.144 204.312 150.144 202.968V202.712C150.144 202.552 150.016 202.456 149.824 202.456H148.288C148.096 202.456 147.968 202.584 147.968 202.776V203C147.968 205.496 149.856 207.16 152.832 207.16ZM171.687 190.552C169.031 190.552 166.983 192.216 166.759 194.776C166.727 194.968 166.855 195.096 167.047 195.096L168.807 195.128C168.999 195.128 169.127 195.032 169.159 194.808C169.287 193.464 170.343 192.536 171.623 192.536C173.287 192.536 174.311 193.944 174.311 196.056V197.304C174.311 197.368 174.247 197.432 174.183 197.432H171.975C168.807 197.432 166.279 198.84 166.279 202.68C166.279 206.488 168.807 207.256 170.631 207.256C172.071 207.256 173.319 206.808 174.151 205.72C174.247 205.624 174.311 205.656 174.311 205.752V206.68C174.311 206.872 174.439 207 174.631 207H176.263C176.455 207 176.583 206.872 176.583 206.68V195.896C176.583 192.664 174.663 190.552 171.687 190.552ZM171.111 205.272C169.703 205.272 168.615 204.44 168.615 202.488C168.615 200.28 169.991 199.256 171.943 199.256H174.183C174.247 199.256 174.311 199.32 174.311 199.384V202.072C174.311 204.216 172.711 205.272 171.111 205.272ZM192.242 192.184V191.128C192.242 190.936 192.114 190.808 191.922 190.808H189.49C189.426 190.808 189.362 190.744 189.362 190.68V187.096C189.362 186.904 189.234 186.776 189.042 186.776H187.442C187.25 186.776 187.122 186.904 187.122 187.096V190.68C187.122 190.744 187.058 190.808 186.994 190.808H185.746C185.554 190.808 185.426 190.936 185.426 191.128V192.184C185.426 192.376 185.554 192.504 185.746 192.504H186.994C187.058 192.504 187.122 192.568 187.122 192.632V203.096C187.122 206.328 188.69 207 190.962 207H191.762C191.954 207 192.082 206.872 192.082 206.68V205.304C192.082 205.112 191.954 204.984 191.762 204.984H191.442C190.098 205.016 189.362 204.472 189.362 202.424V192.632C189.362 192.568 189.426 192.504 189.49 192.504H191.922C192.114 192.504 192.242 192.376 192.242 192.184ZM204.741 199.448V195.448C204.741 192.568 202.821 190.552 199.717 190.552C196.677 190.552 194.725 192.568 194.725 195.448V202.36C194.725 205.304 196.677 207.256 199.717 207.256C202.533 207.256 204.293 205.656 204.645 203.16C204.677 202.968 204.549 202.808 204.357 202.808L202.757 202.744C202.565 202.744 202.469 202.84 202.405 203.032C202.117 204.344 201.125 205.272 199.717 205.272C198.117 205.272 196.997 204.024 196.997 202.232V199.896C196.997 199.832 197.061 199.768 197.125 199.768H204.421C204.613 199.768 204.741 199.64 204.741 199.448ZM199.717 192.536C201.381 192.536 202.501 193.784 202.501 195.608V197.752C202.501 197.816 202.437 197.88 202.373 197.88H197.125C197.061 197.88 196.997 197.816 196.997 197.752V195.608C196.997 193.784 198.117 192.536 199.717 192.536ZM212.748 207.256C215.82 207.256 217.804 205.304 217.804 202.808V202.456C217.804 202.264 217.676 202.136 217.484 202.136L215.852 202.104C215.66 202.104 215.532 202.232 215.532 202.424V202.648C215.532 204.024 214.412 205.272 212.748 205.272C211.148 205.272 210.028 204.024 210.028 202.2V195.608C210.028 193.784 211.148 192.536 212.748 192.536C214.412 192.536 215.532 193.784 215.532 195.16V195.416C215.532 195.576 215.66 195.704 215.852 195.704L217.484 195.64C217.676 195.64 217.804 195.512 217.804 195.32V195C217.804 192.6 215.82 190.552 212.748 190.552C209.708 190.552 207.756 192.6 207.756 195.448V202.36C207.756 205.304 209.708 207.256 212.748 207.256ZM226.743 190.584C225.463 190.584 224.247 191.064 223.415 192.216C223.351 192.312 223.255 192.28 223.255 192.184V184.92C223.255 184.728 223.127 184.6 222.935 184.6H221.303C221.111 184.6 220.983 184.728 220.983 184.92V206.68C220.983 206.872 221.111 207 221.303 207H222.935C223.127 207 223.255 206.872 223.255 206.68V196.024C223.255 193.88 224.311 192.568 226.007 192.568C227.639 192.568 228.567 193.784 228.567 195.864V206.68C228.567 206.872 228.695 207 228.887 207H230.519C230.711 207 230.839 206.872 230.839 206.68V195.672C230.839 192.472 229.367 190.584 226.743 190.584ZM240.306 190.584C239.026 190.584 237.81 191.064 236.978 192.216C236.914 192.312 236.818 192.28 236.818 192.184V191.128C236.818 190.936 236.69 190.808 236.498 190.808H234.866C234.674 190.808 234.546 190.936 234.546 191.128V206.68C234.546 206.872 234.674 207 234.866 207H236.498C236.69 207 236.818 206.872 236.818 206.68V196.024C236.818 193.88 237.874 192.568 239.57 192.568C241.202 192.568 242.13 193.784 242.13 195.864V206.68C242.13 206.872 242.258 207 242.45 207H244.082C244.274 207 244.402 206.872 244.402 206.68V195.672C244.402 192.472 242.93 190.584 240.306 190.584ZM249.42 187.928C250.316 187.928 250.956 187.224 250.956 186.232C250.956 185.304 250.316 184.6 249.42 184.6C248.492 184.6 247.82 185.304 247.82 186.232C247.82 187.224 248.492 187.928 249.42 187.928ZM248.588 207H250.22C250.412 207 250.54 206.872 250.54 206.68V191.128C250.54 190.936 250.412 190.808 250.22 190.808H248.588C248.396 190.808 248.268 190.936 248.268 191.128V206.68C248.268 206.872 248.396 207 248.588 207ZM259.217 207.256C262.289 207.256 264.273 205.304 264.273 202.808V202.456C264.273 202.264 264.145 202.136 263.953 202.136L262.321 202.104C262.129 202.104 262.001 202.232 262.001 202.424V202.648C262.001 204.024 260.881 205.272 259.217 205.272C257.617 205.272 256.497 204.024 256.497 202.2V195.608C256.497 193.784 257.617 192.536 259.217 192.536C260.881 192.536 262.001 193.784 262.001 195.16V195.416C262.001 195.576 262.129 195.704 262.321 195.704L263.953 195.64C264.145 195.64 264.273 195.512 264.273 195.32V195C264.273 192.6 262.289 190.552 259.217 190.552C256.177 190.552 254.225 192.6 254.225 195.448V202.36C254.225 205.304 256.177 207.256 259.217 207.256ZM272.156 190.552C269.5 190.552 267.452 192.216 267.228 194.776C267.196 194.968 267.324 195.096 267.516 195.096L269.276 195.128C269.468 195.128 269.596 195.032 269.628 194.808C269.756 193.464 270.812 192.536 272.092 192.536C273.756 192.536 274.78 193.944 274.78 196.056V197.304C274.78 197.368 274.716 197.432 274.652 197.432H272.444C269.276 197.432 266.748 198.84 266.748 202.68C266.748 206.488 269.276 207.256 271.1 207.256C272.54 207.256 273.788 206.808 274.62 205.72C274.716 205.624 274.78 205.656 274.78 205.752V206.68C274.78 206.872 274.908 207 275.1 207H276.732C276.924 207 277.052 206.872 277.052 206.68V195.896C277.052 192.664 275.132 190.552 272.156 190.552ZM271.58 205.272C270.172 205.272 269.084 204.44 269.084 202.488C269.084 200.28 270.46 199.256 272.412 199.256H274.652C274.716 199.256 274.78 199.32 274.78 199.384V202.072C274.78 204.216 273.18 205.272 271.58 205.272ZM280.736 207H282.368C282.56 207 282.688 206.872 282.688 206.68V184.92C282.688 184.728 282.56 184.6 282.368 184.6H280.736C280.544 184.6 280.416 184.728 280.416 184.92V206.68C280.416 206.872 280.544 207 280.736 207ZM300.156 184.92V192.024C300.156 192.12 300.092 192.184 299.996 192.088C299.26 191.064 298.14 190.552 296.828 190.552C294.236 190.552 292.604 192.536 292.508 195.352C292.476 196.536 292.476 197.624 292.476 198.808C292.476 199.992 292.476 201.176 292.508 202.36C292.636 205.208 294.268 207.256 296.828 207.256C298.14 207.256 299.26 206.712 299.996 205.688C300.092 205.592 300.156 205.656 300.156 205.752V206.68C300.156 206.872 300.284 207 300.476 207H302.108C302.3 207 302.428 206.872 302.428 206.68V184.92C302.428 184.728 302.3 184.6 302.108 184.6H300.476C300.284 184.6 300.156 184.728 300.156 184.92ZM297.5 205.272C295.836 205.272 294.716 203.96 294.748 202.072V198.904C294.748 198.072 294.716 196.856 294.748 195.736C294.716 193.816 295.868 192.536 297.5 192.536C299.036 192.536 300.156 193.816 300.156 195.736V202.072C300.156 203.992 299.036 205.272 297.5 205.272ZM311.799 190.648C310.263 190.648 309.303 191.64 308.759 193.08C308.695 193.176 308.599 193.176 308.599 193.048V191.128C308.599 190.936 308.471 190.808 308.279 190.808H306.647C306.455 190.808 306.327 190.936 306.327 191.128V206.68C306.327 206.872 306.455 207 306.647 207H308.279C308.471 207 308.599 206.872 308.599 206.68V197.08C308.599 194.904 309.687 193.208 311.223 193.112C311.735 193.016 312.215 193.08 312.567 193.24C312.791 193.304 312.951 193.272 312.983 193.048L313.335 191.416C313.367 191.256 313.335 191.096 313.175 191C312.855 190.808 312.439 190.648 311.799 190.648ZM320.344 190.552C317.688 190.552 315.64 192.216 315.416 194.776C315.384 194.968 315.512 195.096 315.704 195.096L317.464 195.128C317.656 195.128 317.784 195.032 317.816 194.808C317.944 193.464 319 192.536 320.28 192.536C321.944 192.536 322.968 193.944 322.968 196.056V197.304C322.968 197.368 322.904 197.432 322.84 197.432H320.632C317.464 197.432 314.936 198.84 314.936 202.68C314.936 206.488 317.464 207.256 319.288 207.256C320.728 207.256 321.976 206.808 322.808 205.72C322.904 205.624 322.968 205.656 322.968 205.752V206.68C322.968 206.872 323.095 207 323.288 207H324.92C325.112 207 325.24 206.872 325.24 206.68V195.896C325.24 192.664 323.32 190.552 320.344 190.552ZM319.768 205.272C318.36 205.272 317.272 204.44 317.272 202.488C317.272 200.28 318.648 199.256 320.6 199.256H322.84C322.904 199.256 322.968 199.32 322.968 199.384V202.072C322.968 204.216 321.368 205.272 319.768 205.272ZM331.168 207H332.736C332.928 207 333.056 206.904 333.088 206.712L335.392 195C335.424 194.872 335.488 194.872 335.52 195L337.888 206.712C337.92 206.904 338.048 207 338.24 207H339.872C340.064 207 340.192 206.904 340.224 206.712L343.616 191.192C343.648 190.968 343.552 190.84 343.328 190.84L341.792 190.808C341.6 190.808 341.472 190.904 341.44 191.096L339.072 203.576C339.04 203.672 338.976 203.672 338.944 203.576L336.576 191.096C336.544 190.904 336.416 190.808 336.224 190.808H334.784C334.592 190.808 334.464 190.904 334.432 191.096L332.096 203.544C332.064 203.64 332 203.64 331.968 203.544L329.632 191.096C329.6 190.904 329.472 190.808 329.28 190.808H327.712C327.488 190.808 327.392 190.936 327.424 191.16L330.816 206.712C330.848 206.904 330.976 207 331.168 207ZM347.639 187.928C348.535 187.928 349.175 187.224 349.175 186.232C349.175 185.304 348.535 184.6 347.639 184.6C346.711 184.6 346.039 185.304 346.039 186.232C346.039 187.224 346.711 187.928 347.639 187.928ZM346.807 207H348.439C348.631 207 348.759 206.872 348.759 206.68V191.128C348.759 190.936 348.631 190.808 348.439 190.808H346.807C346.615 190.808 346.487 190.936 346.487 191.128V206.68C346.487 206.872 346.615 207 346.807 207ZM358.556 190.584C357.276 190.584 356.06 191.064 355.228 192.216C355.164 192.312 355.068 192.28 355.068 192.184V191.128C355.068 190.936 354.94 190.808 354.748 190.808H353.116C352.924 190.808 352.796 190.936 352.796 191.128V206.68C352.796 206.872 352.924 207 353.116 207H354.748C354.94 207 355.068 206.872 355.068 206.68V196.024C355.068 193.88 356.124 192.568 357.82 192.568C359.452 192.568 360.38 193.784 360.38 195.864V206.68C360.38 206.872 360.508 207 360.7 207H362.332C362.524 207 362.652 206.872 362.652 206.68V195.672C362.652 192.472 361.18 190.584 358.556 190.584ZM373.718 191.128V192.12C373.718 192.248 373.654 192.28 373.558 192.152C372.822 191.064 371.606 190.552 370.358 190.552C367.638 190.552 366.006 192.504 366.006 195.448V202.2C366.006 205.08 367.606 207.096 370.358 207.096C371.574 207.096 372.79 206.584 373.558 205.464C373.654 205.368 373.718 205.432 373.718 205.528V206.488C373.718 209.688 372.662 211.544 369.11 211.448C368.918 211.448 368.79 211.576 368.79 211.768V213.144C368.79 213.336 368.886 213.464 369.11 213.496C374.326 213.72 375.99 210.936 375.99 206.68V191.128C375.99 190.936 375.862 190.808 375.67 190.808H374.038C373.846 190.808 373.718 190.936 373.718 191.128ZM371.03 205.112C369.43 205.112 368.278 203.864 368.278 202.072V195.608C368.278 193.784 369.43 192.536 371.03 192.536C372.63 192.536 373.718 193.784 373.718 195.608V202.072C373.718 203.864 372.63 205.112 371.03 205.112ZM390.655 207.256C393.727 207.256 395.711 205.304 395.711 202.36V195.448C395.711 192.568 393.727 190.552 390.655 190.552C387.583 190.552 385.631 192.568 385.631 195.448V202.36C385.631 205.304 387.583 207.256 390.655 207.256ZM390.655 205.272C389.023 205.272 387.903 204.024 387.903 202.232V195.608C387.903 193.784 389.023 192.536 390.655 192.536C392.287 192.536 393.439 193.784 393.439 195.608V202.232C393.439 204.024 392.287 205.272 390.655 205.272ZM404.385 186.328H404.769C404.961 186.328 405.089 186.232 405.089 186.008L405.121 184.696C405.121 184.504 404.993 184.376 404.801 184.376H404.353C401.121 184.376 399.905 186.008 399.905 189.656V190.68C399.905 190.744 399.841 190.808 399.777 190.808H398.497C398.305 190.808 398.177 190.936 398.177 191.128V192.184C398.177 192.376 398.305 192.504 398.497 192.504H399.777C399.841 192.504 399.905 192.568 399.905 192.632V206.68C399.905 206.872 400.033 207 400.225 207H401.825C402.017 207 402.145 206.872 402.145 206.68V192.632C402.145 192.568 402.209 192.504 402.273 192.504H404.737C404.929 192.504 405.057 192.376 405.057 192.184V191.128C405.057 190.936 404.929 190.808 404.737 190.808H402.273C402.209 190.808 402.145 190.744 402.145 190.68V189.688C402.145 187.48 402.689 186.328 404.385 186.328ZM419.187 190.552C416.531 190.552 414.483 192.216 414.259 194.776C414.227 194.968 414.355 195.096 414.547 195.096L416.307 195.128C416.499 195.128 416.627 195.032 416.659 194.808C416.787 193.464 417.843 192.536 419.123 192.536C420.787 192.536 421.811 193.944 421.811 196.056V197.304C421.811 197.368 421.747 197.432 421.683 197.432H419.475C416.307 197.432 413.779 198.84 413.779 202.68C413.779 206.488 416.307 207.256 418.131 207.256C419.571 207.256 420.819 206.808 421.651 205.72C421.747 205.624 421.811 205.656 421.811 205.752V206.68C421.811 206.872 421.939 207 422.131 207H423.763C423.955 207 424.083 206.872 424.083 206.68V195.896C424.083 192.664 422.163 190.552 419.187 190.552ZM418.611 205.272C417.203 205.272 416.115 204.44 416.115 202.488C416.115 200.28 417.491 199.256 419.443 199.256H421.683C421.747 199.256 421.811 199.32 421.811 199.384V202.072C421.811 204.216 420.211 205.272 418.611 205.272ZM443.966 195.352C443.87 192.536 442.238 190.552 439.646 190.552C438.334 190.552 437.214 191.064 436.478 192.088C436.382 192.184 436.318 192.12 436.318 192.024V184.92C436.318 184.728 436.19 184.6 435.998 184.6H434.366C434.174 184.6 434.046 184.728 434.046 184.92V206.68C434.046 206.872 434.174 207 434.366 207H435.998C436.19 207 436.318 206.872 436.318 206.68V205.752C436.318 205.656 436.382 205.592 436.478 205.688C437.214 206.712 438.334 207.256 439.646 207.256C442.206 207.256 443.838 205.208 443.966 202.36C443.998 201.176 443.998 199.992 443.998 198.808C443.998 197.624 443.998 196.536 443.966 195.352ZM438.974 205.272C437.438 205.272 436.318 203.992 436.318 202.072V195.736C436.318 193.816 437.438 192.536 438.974 192.536C440.606 192.536 441.758 193.816 441.726 195.736C441.758 196.856 441.726 198.072 441.726 198.904V202.072C441.758 203.96 440.638 205.272 438.974 205.272ZM454.969 191.128V201.784C454.969 203.928 453.945 205.24 452.249 205.24C450.617 205.24 449.689 204.184 449.689 202.008V191.128C449.689 190.936 449.561 190.808 449.369 190.808H447.737C447.545 190.808 447.417 190.936 447.417 191.128V202.52C447.417 205.784 449.177 207.224 451.609 207.224C452.985 207.224 454.105 206.744 454.809 205.56C454.873 205.464 454.969 205.464 454.969 205.592V206.68C454.969 206.872 455.097 207 455.289 207H456.921C457.113 207 457.241 206.872 457.241 206.68V191.128C457.241 190.936 457.113 190.808 456.921 190.808H455.289C455.097 190.808 454.969 190.936 454.969 191.128ZM462.452 187.928C463.348 187.928 463.988 187.224 463.988 186.232C463.988 185.304 463.348 184.6 462.452 184.6C461.524 184.6 460.852 185.304 460.852 186.232C460.852 187.224 461.524 187.928 462.452 187.928ZM461.62 207H463.252C463.444 207 463.572 206.872 463.572 206.68V191.128C463.572 190.936 463.444 190.808 463.252 190.808H461.62C461.428 190.808 461.299 190.936 461.299 191.128V206.68C461.299 206.872 461.428 207 461.62 207ZM467.736 207H469.368C469.56 207 469.688 206.872 469.688 206.68V184.92C469.688 184.728 469.56 184.6 469.368 184.6H467.736C467.544 184.6 467.416 184.728 467.416 184.92V206.68C467.416 206.872 467.544 207 467.736 207ZM480.75 184.92V192.024C480.75 192.12 480.686 192.184 480.59 192.088C479.854 191.064 478.734 190.552 477.422 190.552C474.83 190.552 473.198 192.536 473.102 195.352C473.07 196.536 473.07 197.624 473.07 198.808C473.07 199.992 473.07 201.176 473.102 202.36C473.23 205.208 474.862 207.256 477.422 207.256C478.734 207.256 479.854 206.712 480.59 205.688C480.686 205.592 480.75 205.656 480.75 205.752V206.68C480.75 206.872 480.878 207 481.07 207H482.702C482.894 207 483.022 206.872 483.022 206.68V184.92C483.022 184.728 482.894 184.6 482.702 184.6H481.07C480.878 184.6 480.75 184.728 480.75 184.92ZM478.094 205.272C476.43 205.272 475.31 203.96 475.342 202.072V198.904C475.342 198.072 475.31 196.856 475.342 195.736C475.31 193.816 476.462 192.536 478.094 192.536C479.63 192.536 480.75 193.816 480.75 195.736V202.072C480.75 203.992 479.63 205.272 478.094 205.272ZM488.233 187.928C489.129 187.928 489.769 187.224 489.769 186.232C489.769 185.304 489.129 184.6 488.233 184.6C487.305 184.6 486.633 185.304 486.633 186.232C486.633 187.224 487.305 187.928 488.233 187.928ZM487.401 207H489.033C489.225 207 489.353 206.872 489.353 206.68V191.128C489.353 190.936 489.225 190.808 489.033 190.808H487.401C487.209 190.808 487.081 190.936 487.081 191.128V206.68C487.081 206.872 487.209 207 487.401 207ZM499.15 190.584C497.87 190.584 496.654 191.064 495.822 192.216C495.758 192.312 495.661 192.28 495.661 192.184V191.128C495.661 190.936 495.534 190.808 495.342 190.808H493.71C493.518 190.808 493.39 190.936 493.39 191.128V206.68C493.39 206.872 493.518 207 493.71 207H495.342C495.534 207 495.661 206.872 495.661 206.68V196.024C495.661 193.88 496.718 192.568 498.414 192.568C500.046 192.568 500.974 193.784 500.974 195.864V206.68C500.974 206.872 501.102 207 501.294 207H502.926C503.118 207 503.246 206.872 503.246 206.68V195.672C503.246 192.472 501.774 190.584 499.15 190.584ZM514.312 191.128V192.12C514.312 192.248 514.248 192.28 514.152 192.152C513.416 191.064 512.2 190.552 510.952 190.552C508.232 190.552 506.6 192.504 506.6 195.448V202.2C506.6 205.08 508.2 207.096 510.952 207.096C512.168 207.096 513.384 206.584 514.152 205.464C514.248 205.368 514.312 205.432 514.312 205.528V206.488C514.312 209.688 513.256 211.544 509.704 211.448C509.512 211.448 509.384 211.576 509.384 211.768V213.144C509.384 213.336 509.48 213.464 509.704 213.496C514.92 213.72 516.584 210.936 516.584 206.68V191.128C516.584 190.936 516.456 190.808 516.264 190.808H514.632C514.44 190.808 514.312 190.936 514.312 191.128ZM511.624 205.112C510.024 205.112 508.872 203.864 508.872 202.072V195.608C508.872 193.784 510.024 192.536 511.624 192.536C513.224 192.536 514.312 193.784 514.312 195.608V202.072C514.312 203.864 513.224 205.112 511.624 205.112ZM54.648 230.184V229.128C54.648 228.936 54.52 228.808 54.328 228.808H51.896C51.832 228.808 51.768 228.744 51.768 228.68V225.096C51.768 224.904 51.64 224.776 51.448 224.776H49.848C49.656 224.776 49.528 224.904 49.528 225.096V228.68C49.528 228.744 49.464 228.808 49.4 228.808H48.152C47.96 228.808 47.832 228.936 47.832 229.128V230.184C47.832 230.376 47.96 230.504 48.152 230.504H49.4C49.464 230.504 49.528 230.568 49.528 230.632V241.096C49.528 244.328 51.096 245 53.368 245H54.168C54.36 245 54.488 244.872 54.488 244.68V243.304C54.488 243.112 54.36 242.984 54.168 242.984H53.848C52.504 243.016 51.768 242.472 51.768 240.424V230.632C51.768 230.568 51.832 230.504 51.896 230.504H54.328C54.52 230.504 54.648 230.376 54.648 230.184ZM63.2433 228.584C61.9633 228.584 60.7473 229.064 59.9153 230.216C59.8513 230.312 59.7552 230.28 59.7552 230.184V222.92C59.7552 222.728 59.6273 222.6 59.4353 222.6H57.8033C57.6113 222.6 57.4833 222.728 57.4833 222.92V244.68C57.4833 244.872 57.6113 245 57.8033 245H59.4353C59.6273 245 59.7552 244.872 59.7552 244.68V234.024C59.7552 231.88 60.8113 230.568 62.5073 230.568C64.1393 230.568 65.0673 231.784 65.0673 233.864V244.68C65.0673 244.872 65.1953 245 65.3873 245H67.0193C67.2113 245 67.3393 244.872 67.3393 244.68V233.672C67.3393 230.472 65.8673 228.584 63.2433 228.584ZM75.7498 228.552C73.0938 228.552 71.0458 230.216 70.8218 232.776C70.7898 232.968 70.9178 233.096 71.1098 233.096L72.8698 233.128C73.0618 233.128 73.1898 233.032 73.2218 232.808C73.3498 231.464 74.4058 230.536 75.6858 230.536C77.3498 230.536 78.3738 231.944 78.3738 234.056V235.304C78.3738 235.368 78.3098 235.432 78.2458 235.432H76.0378C72.8698 235.432 70.3418 236.84 70.3418 240.68C70.3418 244.488 72.8698 245.256 74.6938 245.256C76.1338 245.256 77.3818 244.808 78.2138 243.72C78.3098 243.624 78.3738 243.656 78.3738 243.752V244.68C78.3738 244.872 78.5017 245 78.6938 245H80.3258C80.5178 245 80.6458 244.872 80.6458 244.68V233.896C80.6458 230.664 78.7258 228.552 75.7498 228.552ZM75.1738 243.272C73.7658 243.272 72.6778 242.44 72.6778 240.488C72.6778 238.28 74.0538 237.256 76.0058 237.256H78.2458C78.3098 237.256 78.3738 237.32 78.3738 237.384V240.072C78.3738 242.216 76.7738 243.272 75.1738 243.272ZM89.898 230.184V229.128C89.898 228.936 89.77 228.808 89.578 228.808H87.146C87.082 228.808 87.018 228.744 87.018 228.68V225.096C87.018 224.904 86.89 224.776 86.698 224.776H85.098C84.906 224.776 84.778 224.904 84.778 225.096V228.68C84.778 228.744 84.714 228.808 84.65 228.808H83.402C83.21 228.808 83.082 228.936 83.082 229.128V230.184C83.082 230.376 83.21 230.504 83.402 230.504H84.65C84.714 230.504 84.778 230.568 84.778 230.632V241.096C84.778 244.328 86.346 245 88.618 245H89.418C89.61 245 89.738 244.872 89.738 244.68V243.304C89.738 243.112 89.61 242.984 89.418 242.984H89.098C87.754 243.016 87.018 242.472 87.018 240.424V230.632C87.018 230.568 87.082 230.504 87.146 230.504H89.578C89.77 230.504 89.898 230.376 89.898 230.184ZM104.292 224.328H104.676C104.868 224.328 104.996 224.232 104.996 224.008L105.028 222.696C105.028 222.504 104.9 222.376 104.708 222.376H104.26C101.028 222.376 99.8115 224.008 99.8115 227.656V228.68C99.8115 228.744 99.7475 228.808 99.6835 228.808H98.4035C98.2115 228.808 98.0835 228.936 98.0835 229.128V230.184C98.0835 230.376 98.2115 230.504 98.4035 230.504H99.6835C99.7475 230.504 99.8115 230.568 99.8115 230.632V244.68C99.8115 244.872 99.9395 245 100.132 245H101.732C101.924 245 102.052 244.872 102.052 244.68V230.632C102.052 230.568 102.116 230.504 102.18 230.504H104.644C104.836 230.504 104.964 230.376 104.964 230.184V229.128C104.964 228.936 104.836 228.808 104.644 228.808H102.18C102.116 228.808 102.052 228.744 102.052 228.68V227.688C102.052 225.48 102.596 224.328 104.292 224.328ZM112.687 228.552C110.031 228.552 107.983 230.216 107.759 232.776C107.727 232.968 107.855 233.096 108.047 233.096L109.807 233.128C109.999 233.128 110.127 233.032 110.159 232.808C110.287 231.464 111.343 230.536 112.623 230.536C114.287 230.536 115.311 231.944 115.311 234.056V235.304C115.311 235.368 115.247 235.432 115.183 235.432H112.975C109.807 235.432 107.279 236.84 107.279 240.68C107.279 244.488 109.807 245.256 111.631 245.256C113.071 245.256 114.319 244.808 115.151 243.72C115.247 243.624 115.311 243.656 115.311 243.752V244.68C115.311 244.872 115.439 245 115.631 245H117.263C117.455 245 117.583 244.872 117.583 244.68V233.896C117.583 230.664 115.663 228.552 112.687 228.552ZM112.111 243.272C110.703 243.272 109.615 242.44 109.615 240.488C109.615 238.28 110.991 237.256 112.943 237.256H115.183C115.247 237.256 115.311 237.32 115.311 237.384V240.072C115.311 242.216 113.711 243.272 112.111 243.272ZM121.268 245H122.9C123.092 245 123.22 244.872 123.22 244.68V222.92C123.22 222.728 123.092 222.6 122.9 222.6H121.268C121.076 222.6 120.948 222.728 120.948 222.92V244.68C120.948 244.872 121.076 245 121.268 245ZM127.049 245H128.681C128.873 245 129.001 244.872 129.001 244.68V222.92C129.001 222.728 128.873 222.6 128.681 222.6H127.049C126.857 222.6 126.729 222.728 126.729 222.92V244.68C126.729 244.872 126.857 245 127.049 245ZM136.926 245.16C139.902 245.16 141.79 243.464 141.79 240.808C141.79 237.8 139.358 236.776 137.502 235.976C135.838 235.272 134.366 234.664 134.366 233C134.366 231.624 135.326 230.504 136.894 230.504C138.462 230.504 139.486 231.592 139.486 233V233.256C139.486 233.416 139.614 233.512 139.806 233.512H141.278C141.47 233.512 141.598 233.384 141.598 233.192V233.096C141.598 230.44 139.806 228.648 136.862 228.648C134.046 228.648 132.19 230.312 132.19 233.064C132.19 236.104 134.462 237.064 136.254 237.8C137.886 238.504 139.518 239.112 139.518 240.904C139.518 242.344 138.526 243.4 136.958 243.4C135.326 243.4 134.238 242.312 134.238 240.968V240.712C134.238 240.552 134.11 240.456 133.918 240.456H132.382C132.19 240.456 132.062 240.584 132.062 240.776V241C132.062 243.496 133.95 245.16 136.926 245.16ZM153.637 245H155.205C155.397 245 155.525 244.904 155.557 244.712L157.861 233C157.893 232.872 157.957 232.872 157.989 233L160.357 244.712C160.389 244.904 160.517 245 160.709 245H162.341C162.533 245 162.661 244.904 162.693 244.712L166.085 229.192C166.117 228.968 166.021 228.84 165.797 228.84L164.261 228.808C164.069 228.808 163.941 228.904 163.909 229.096L161.541 241.576C161.509 241.672 161.445 241.672 161.413 241.576L159.045 229.096C159.013 228.904 158.885 228.808 158.693 228.808H157.253C157.061 228.808 156.933 228.904 156.901 229.096L154.565 241.544C154.533 241.64 154.469 241.64 154.437 241.544L152.101 229.096C152.069 228.904 151.941 228.808 151.749 228.808H150.181C149.957 228.808 149.861 228.936 149.893 229.16L153.285 244.712C153.317 244.904 153.445 245 153.637 245ZM170.108 225.928C171.004 225.928 171.644 225.224 171.644 224.232C171.644 223.304 171.004 222.6 170.108 222.6C169.18 222.6 168.508 223.304 168.508 224.232C168.508 225.224 169.18 225.928 170.108 225.928ZM169.276 245H170.908C171.1 245 171.228 244.872 171.228 244.68V229.128C171.228 228.936 171.1 228.808 170.908 228.808H169.276C169.084 228.808 168.956 228.936 168.956 229.128V244.68C168.956 244.872 169.084 245 169.276 245ZM180.961 230.184V229.128C180.961 228.936 180.833 228.808 180.641 228.808H178.209C178.145 228.808 178.081 228.744 178.081 228.68V225.096C178.081 224.904 177.953 224.776 177.761 224.776H176.161C175.969 224.776 175.841 224.904 175.841 225.096V228.68C175.841 228.744 175.777 228.808 175.713 228.808H174.465C174.273 228.808 174.145 228.936 174.145 229.128V230.184C174.145 230.376 174.273 230.504 174.465 230.504H175.713C175.777 230.504 175.841 230.568 175.841 230.632V241.096C175.841 244.328 177.409 245 179.681 245H180.481C180.673 245 180.801 244.872 180.801 244.68V243.304C180.801 243.112 180.673 242.984 180.481 242.984H180.161C178.817 243.016 178.081 242.472 178.081 240.424V230.632C178.081 230.568 178.145 230.504 178.209 230.504H180.641C180.833 230.504 180.961 230.376 180.961 230.184ZM189.556 228.584C188.276 228.584 187.06 229.064 186.228 230.216C186.164 230.312 186.068 230.28 186.068 230.184V222.92C186.068 222.728 185.94 222.6 185.748 222.6H184.116C183.924 222.6 183.796 222.728 183.796 222.92V244.68C183.796 244.872 183.924 245 184.116 245H185.748C185.94 245 186.068 244.872 186.068 244.68V234.024C186.068 231.88 187.124 230.568 188.82 230.568C190.452 230.568 191.38 231.784 191.38 233.864V244.68C191.38 244.872 191.508 245 191.7 245H193.332C193.524 245 193.652 244.872 193.652 244.68V233.672C193.652 230.472 192.18 228.584 189.556 228.584ZM198.67 225.928C199.566 225.928 200.206 225.224 200.206 224.232C200.206 223.304 199.566 222.6 198.67 222.6C197.742 222.6 197.07 223.304 197.07 224.232C197.07 225.224 197.742 225.928 198.67 225.928ZM197.838 245H199.47C199.662 245 199.79 244.872 199.79 244.68V229.128C199.79 228.936 199.662 228.808 199.47 228.808H197.838C197.646 228.808 197.518 228.936 197.518 229.128V244.68C197.518 244.872 197.646 245 197.838 245ZM209.587 228.584C208.307 228.584 207.091 229.064 206.259 230.216C206.195 230.312 206.099 230.28 206.099 230.184V229.128C206.099 228.936 205.971 228.808 205.779 228.808H204.147C203.955 228.808 203.827 228.936 203.827 229.128V244.68C203.827 244.872 203.955 245 204.147 245H205.779C205.971 245 206.099 244.872 206.099 244.68V234.024C206.099 231.88 207.155 230.568 208.851 230.568C210.483 230.568 211.411 231.784 211.411 233.864V244.68C211.411 244.872 211.539 245 211.731 245H213.363C213.555 245 213.683 244.872 213.683 244.68V233.672C213.683 230.472 212.211 228.584 209.587 228.584ZM229.492 230.184V229.128C229.492 228.936 229.364 228.808 229.172 228.808H226.74C226.676 228.808 226.612 228.744 226.612 228.68V225.096C226.612 224.904 226.484 224.776 226.292 224.776H224.692C224.5 224.776 224.372 224.904 224.372 225.096V228.68C224.372 228.744 224.308 228.808 224.244 228.808H222.996C222.804 228.808 222.676 228.936 222.676 229.128V230.184C222.676 230.376 222.804 230.504 222.996 230.504H224.244C224.308 230.504 224.372 230.568 224.372 230.632V241.096C224.372 244.328 225.94 245 228.212 245H229.012C229.204 245 229.332 244.872 229.332 244.68V243.304C229.332 243.112 229.204 242.984 229.012 242.984H228.692C227.348 243.016 226.612 242.472 226.612 240.424V230.632C226.612 230.568 226.676 230.504 226.74 230.504H229.172C229.364 230.504 229.492 230.376 229.492 230.184ZM238.087 228.584C236.807 228.584 235.591 229.064 234.759 230.216C234.695 230.312 234.599 230.28 234.599 230.184V222.92C234.599 222.728 234.471 222.6 234.279 222.6H232.647C232.455 222.6 232.327 222.728 232.327 222.92V244.68C232.327 244.872 232.455 245 232.647 245H234.279C234.471 245 234.599 244.872 234.599 244.68V234.024C234.599 231.88 235.655 230.568 237.351 230.568C238.983 230.568 239.911 231.784 239.911 233.864V244.68C239.911 244.872 240.039 245 240.231 245H241.863C242.055 245 242.183 244.872 242.183 244.68V233.672C242.183 230.472 240.711 228.584 238.087 228.584ZM255.554 237.448V233.448C255.554 230.568 253.634 228.552 250.53 228.552C247.49 228.552 245.538 230.568 245.538 233.448V240.36C245.538 243.304 247.49 245.256 250.53 245.256C253.345 245.256 255.106 243.656 255.458 241.16C255.49 240.968 255.362 240.808 255.17 240.808L253.57 240.744C253.378 240.744 253.282 240.84 253.218 241.032C252.93 242.344 251.938 243.272 250.53 243.272C248.93 243.272 247.81 242.024 247.81 240.232V237.896C247.81 237.832 247.874 237.768 247.938 237.768H255.234C255.426 237.768 255.554 237.64 255.554 237.448ZM250.53 230.536C252.194 230.536 253.314 231.784 253.314 233.608V235.752C253.314 235.816 253.25 235.88 253.186 235.88H247.938C247.874 235.88 247.81 235.816 247.81 235.752V233.608C247.81 231.784 248.93 230.536 250.53 230.536ZM272.687 222.92V230.024C272.687 230.12 272.623 230.184 272.527 230.088C271.791 229.064 270.671 228.552 269.359 228.552C266.767 228.552 265.135 230.536 265.039 233.352C265.007 234.536 265.007 235.624 265.007 236.808C265.007 237.992 265.007 239.176 265.039 240.36C265.167 243.208 266.799 245.256 269.359 245.256C270.671 245.256 271.791 244.712 272.527 243.688C272.623 243.592 272.687 243.656 272.687 243.752V244.68C272.687 244.872 272.815 245 273.007 245H274.639C274.831 245 274.959 244.872 274.959 244.68V222.92C274.959 222.728 274.831 222.6 274.639 222.6H273.007C272.815 222.6 272.687 222.728 272.687 222.92ZM270.031 243.272C268.367 243.272 267.247 241.96 267.279 240.072V236.904C267.279 236.072 267.247 234.856 267.279 233.736C267.247 231.816 268.399 230.536 270.031 230.536C271.567 230.536 272.687 231.816 272.687 233.736V240.072C272.687 241.992 271.567 243.272 270.031 243.272ZM288.522 237.448V233.448C288.522 230.568 286.602 228.552 283.498 228.552C280.458 228.552 278.506 230.568 278.506 233.448V240.36C278.506 243.304 280.458 245.256 283.498 245.256C286.314 245.256 288.074 243.656 288.426 241.16C288.458 240.968 288.33 240.808 288.138 240.808L286.538 240.744C286.346 240.744 286.25 240.84 286.186 241.032C285.898 242.344 284.906 243.272 283.498 243.272C281.898 243.272 280.778 242.024 280.778 240.232V237.896C280.778 237.832 280.842 237.768 280.906 237.768H288.202C288.394 237.768 288.522 237.64 288.522 237.448ZM283.498 230.536C285.162 230.536 286.282 231.784 286.282 233.608V235.752C286.282 235.816 286.218 235.88 286.154 235.88H280.906C280.842 235.88 280.778 235.816 280.778 235.752V233.608C280.778 231.784 281.898 230.536 283.498 230.536ZM292.562 227.656V228.68C292.562 228.744 292.498 228.808 292.434 228.808H291.154C290.962 228.808 290.834 228.936 290.834 229.128V230.184C290.834 230.376 290.962 230.504 291.154 230.504H292.434C292.498 230.504 292.562 230.568 292.562 230.632V244.68C292.562 244.872 292.69 245 292.882 245H294.482C294.674 245 294.802 244.872 294.802 244.68V230.632C294.802 230.568 294.866 230.504 294.93 230.504H297.394C297.586 230.504 297.714 230.376 297.714 230.184V229.128C297.714 228.936 297.586 228.808 297.394 228.808H294.93C294.866 228.808 294.802 228.744 294.802 228.68V227.688C294.802 225.48 295.346 224.328 297.042 224.328H297.426C297.618 224.328 297.746 224.232 297.746 224.008L297.778 222.696C297.778 222.504 297.65 222.376 297.458 222.376H297.01C293.778 222.376 292.562 224.008 292.562 227.656ZM302.034 225.928C302.93 225.928 303.57 225.224 303.57 224.232C303.57 223.304 302.93 222.6 302.034 222.6C301.106 222.6 300.434 223.304 300.434 224.232C300.434 225.224 301.106 225.928 302.034 225.928ZM301.202 245H302.834C303.026 245 303.154 244.872 303.154 244.68V229.128C303.154 228.936 303.026 228.808 302.834 228.808H301.202C301.01 228.808 300.882 228.936 300.882 229.128V244.68C300.882 244.872 301.01 245 301.202 245ZM312.931 228.584C311.651 228.584 310.435 229.064 309.603 230.216C309.539 230.312 309.443 230.28 309.443 230.184V229.128C309.443 228.936 309.315 228.808 309.123 228.808H307.491C307.299 228.808 307.171 228.936 307.171 229.128V244.68C307.171 244.872 307.299 245 307.491 245H309.123C309.315 245 309.443 244.872 309.443 244.68V234.024C309.443 231.88 310.499 230.568 312.195 230.568C313.827 230.568 314.755 231.784 314.755 233.864V244.68C314.755 244.872 314.883 245 315.075 245H316.707C316.899 245 317.027 244.872 317.027 244.68V233.672C317.027 230.472 315.555 228.584 312.931 228.584ZM322.045 225.928C322.941 225.928 323.581 225.224 323.581 224.232C323.581 223.304 322.941 222.6 322.045 222.6C321.117 222.6 320.445 223.304 320.445 224.232C320.445 225.224 321.117 225.928 322.045 225.928ZM321.213 245H322.845C323.037 245 323.165 244.872 323.165 244.68V229.128C323.165 228.936 323.037 228.808 322.845 228.808H321.213C321.021 228.808 320.893 228.936 320.893 229.128V244.68C320.893 244.872 321.021 245 321.213 245ZM332.898 230.184V229.128C332.898 228.936 332.77 228.808 332.578 228.808H330.146C330.082 228.808 330.018 228.744 330.018 228.68V225.096C330.018 224.904 329.89 224.776 329.698 224.776H328.098C327.906 224.776 327.778 224.904 327.778 225.096V228.68C327.778 228.744 327.714 228.808 327.65 228.808H326.402C326.21 228.808 326.082 228.936 326.082 229.128V230.184C326.082 230.376 326.21 230.504 326.402 230.504H327.65C327.714 230.504 327.778 230.568 327.778 230.632V241.096C327.778 244.328 329.346 245 331.618 245H332.418C332.61 245 332.738 244.872 332.738 244.68V243.304C332.738 243.112 332.61 242.984 332.418 242.984H332.098C330.754 243.016 330.018 242.472 330.018 240.424V230.632C330.018 230.568 330.082 230.504 330.146 230.504H332.578C332.77 230.504 332.898 230.376 332.898 230.184ZM337.045 225.928C337.941 225.928 338.581 225.224 338.581 224.232C338.581 223.304 337.941 222.6 337.045 222.6C336.117 222.6 335.445 223.304 335.445 224.232C335.445 225.224 336.117 225.928 337.045 225.928ZM336.213 245H337.845C338.037 245 338.165 244.872 338.165 244.68V229.128C338.165 228.936 338.037 228.808 337.845 228.808H336.213C336.021 228.808 335.893 228.936 335.893 229.128V244.68C335.893 244.872 336.021 245 336.213 245ZM346.874 245.256C349.946 245.256 351.93 243.304 351.93 240.36V233.448C351.93 230.568 349.946 228.552 346.874 228.552C343.802 228.552 341.85 230.568 341.85 233.448V240.36C341.85 243.304 343.802 245.256 346.874 245.256ZM346.874 243.272C345.242 243.272 344.122 242.024 344.122 240.232V233.608C344.122 231.784 345.242 230.536 346.874 230.536C348.506 230.536 349.658 231.784 349.658 233.608V240.232C349.658 242.024 348.506 243.272 346.874 243.272ZM361.212 228.584C359.932 228.584 358.716 229.064 357.884 230.216C357.82 230.312 357.724 230.28 357.724 230.184V229.128C357.724 228.936 357.596 228.808 357.404 228.808H355.772C355.58 228.808 355.452 228.936 355.452 229.128V244.68C355.452 244.872 355.58 245 355.772 245H357.404C357.596 245 357.724 244.872 357.724 244.68V234.024C357.724 231.88 358.78 230.568 360.476 230.568C362.108 230.568 363.036 231.784 363.036 233.864V244.68C363.036 244.872 363.164 245 363.356 245H364.988C365.18 245 365.308 244.872 365.308 244.68V233.672C365.308 230.472 363.836 228.584 361.212 228.584ZM380.093 245.256C383.165 245.256 385.149 243.304 385.149 240.36V233.448C385.149 230.568 383.165 228.552 380.093 228.552C377.021 228.552 375.069 230.568 375.069 233.448V240.36C375.069 243.304 377.021 245.256 380.093 245.256ZM380.093 243.272C378.461 243.272 377.341 242.024 377.341 240.232V233.608C377.341 231.784 378.461 230.536 380.093 230.536C381.725 230.536 382.877 231.784 382.877 233.608V240.232C382.877 242.024 381.725 243.272 380.093 243.272ZM393.823 224.328H394.207C394.399 224.328 394.527 224.232 394.527 224.008L394.559 222.696C394.559 222.504 394.431 222.376 394.239 222.376H393.791C390.559 222.376 389.343 224.008 389.343 227.656V228.68C389.343 228.744 389.279 228.808 389.215 228.808H387.935C387.743 228.808 387.615 228.936 387.615 229.128V230.184C387.615 230.376 387.743 230.504 387.935 230.504H389.215C389.279 230.504 389.343 230.568 389.343 230.632V244.68C389.343 244.872 389.471 245 389.663 245H391.263C391.455 245 391.583 244.872 391.583 244.68V230.632C391.583 230.568 391.647 230.504 391.711 230.504H394.175C394.367 230.504 394.495 230.376 394.495 230.184V229.128C394.495 228.936 394.367 228.808 394.175 228.808H391.711C391.647 228.808 391.583 228.744 391.583 228.68V227.688C391.583 225.48 392.127 224.328 393.823 224.328ZM53.656 266.552C51 266.552 48.952 268.216 48.728 270.776C48.696 270.968 48.824 271.096 49.016 271.096L50.776 271.128C50.968 271.128 51.096 271.032 51.128 270.808C51.256 269.464 52.312 268.536 53.592 268.536C55.256 268.536 56.28 269.944 56.28 272.056V273.304C56.28 273.368 56.216 273.432 56.152 273.432H53.944C50.776 273.432 48.248 274.84 48.248 278.68C48.248 282.488 50.776 283.256 52.6 283.256C54.04 283.256 55.288 282.808 56.12 281.72C56.216 281.624 56.28 281.656 56.28 281.752V282.68C56.28 282.872 56.408 283 56.6 283H58.232C58.424 283 58.552 282.872 58.552 282.68V271.896C58.552 268.664 56.632 266.552 53.656 266.552ZM53.08 281.272C51.672 281.272 50.584 280.44 50.584 278.488C50.584 276.28 51.96 275.256 53.912 275.256H56.152C56.216 275.256 56.28 275.32 56.28 275.384V278.072C56.28 280.216 54.68 281.272 53.08 281.272ZM67.5803 266.648C66.0443 266.648 65.0843 267.64 64.5403 269.08C64.4763 269.176 64.3802 269.176 64.3802 269.048V267.128C64.3802 266.936 64.2523 266.808 64.0603 266.808H62.4283C62.2363 266.808 62.1083 266.936 62.1083 267.128V282.68C62.1083 282.872 62.2363 283 62.4283 283H64.0603C64.2523 283 64.3802 282.872 64.3802 282.68V273.08C64.3802 270.904 65.4683 269.208 67.0043 269.112C67.5163 269.016 67.9963 269.08 68.3483 269.24C68.5723 269.304 68.7323 269.272 68.7643 269.048L69.1163 267.416C69.1483 267.256 69.1163 267.096 68.9563 267C68.6363 266.808 68.2203 266.648 67.5803 266.648ZM75.9983 283.256C79.0703 283.256 81.0543 281.304 81.0543 278.808V278.456C81.0543 278.264 80.9263 278.136 80.7343 278.136L79.1023 278.104C78.9103 278.104 78.7823 278.232 78.7823 278.424V278.648C78.7823 280.024 77.6623 281.272 75.9983 281.272C74.3983 281.272 73.2783 280.024 73.2783 278.2V271.608C73.2783 269.784 74.3983 268.536 75.9983 268.536C77.6623 268.536 78.7823 269.784 78.7823 271.16V271.416C78.7823 271.576 78.9103 271.704 79.1023 271.704L80.7343 271.64C80.9263 271.64 81.0543 271.512 81.0543 271.32V271C81.0543 268.6 79.0703 266.552 75.9983 266.552C72.9583 266.552 71.0063 268.6 71.0063 271.448V278.36C71.0063 281.304 72.9583 283.256 75.9983 283.256ZM89.9933 266.584C88.7133 266.584 87.4973 267.064 86.6653 268.216C86.6013 268.312 86.5052 268.28 86.5052 268.184V260.92C86.5052 260.728 86.3773 260.6 86.1853 260.6H84.5533C84.3613 260.6 84.2333 260.728 84.2333 260.92V282.68C84.2333 282.872 84.3613 283 84.5533 283H86.1853C86.3773 283 86.5052 282.872 86.5052 282.68V272.024C86.5052 269.88 87.5613 268.568 89.2573 268.568C90.8893 268.568 91.8173 269.784 91.8173 271.864V282.68C91.8173 282.872 91.9453 283 92.1373 283H93.7693C93.9613 283 94.0893 282.872 94.0893 282.68V271.672C94.0893 268.472 92.6173 266.584 89.9933 266.584ZM99.1078 263.928C100.004 263.928 100.644 263.224 100.644 262.232C100.644 261.304 100.004 260.6 99.1078 260.6C98.1798 260.6 97.5078 261.304 97.5078 262.232C97.5078 263.224 98.1798 263.928 99.1078 263.928ZM98.2758 283H99.9078C100.1 283 100.228 282.872 100.228 282.68V267.128C100.228 266.936 100.1 266.808 99.9078 266.808H98.2758C98.0838 266.808 97.9557 266.936 97.9557 267.128V282.68C97.9557 282.872 98.0838 283 98.2758 283ZM109.961 268.184V267.128C109.961 266.936 109.833 266.808 109.641 266.808H107.209C107.145 266.808 107.081 266.744 107.081 266.68V263.096C107.081 262.904 106.953 262.776 106.761 262.776H105.161C104.969 262.776 104.841 262.904 104.841 263.096V266.68C104.841 266.744 104.777 266.808 104.713 266.808H103.465C103.273 266.808 103.145 266.936 103.145 267.128V268.184C103.145 268.376 103.273 268.504 103.465 268.504H104.713C104.777 268.504 104.841 268.568 104.841 268.632V279.096C104.841 282.328 106.409 283 108.681 283H109.481C109.673 283 109.801 282.872 109.801 282.68V281.304C109.801 281.112 109.673 280.984 109.481 280.984H109.161C107.817 281.016 107.081 280.472 107.081 278.424V268.632C107.081 268.568 107.145 268.504 107.209 268.504H109.641C109.833 268.504 109.961 268.376 109.961 268.184ZM122.46 275.448V271.448C122.46 268.568 120.54 266.552 117.436 266.552C114.396 266.552 112.444 268.568 112.444 271.448V278.36C112.444 281.304 114.396 283.256 117.436 283.256C120.252 283.256 122.012 281.656 122.364 279.16C122.396 278.968 122.268 278.808 122.076 278.808L120.476 278.744C120.284 278.744 120.188 278.84 120.124 279.032C119.836 280.344 118.844 281.272 117.436 281.272C115.836 281.272 114.716 280.024 114.716 278.232V275.896C114.716 275.832 114.78 275.768 114.844 275.768H122.14C122.332 275.768 122.46 275.64 122.46 275.448ZM117.436 268.536C119.1 268.536 120.22 269.784 120.22 271.608V273.752C120.22 273.816 120.156 273.88 120.092 273.88H114.844C114.78 273.88 114.716 273.816 114.716 273.752V271.608C114.716 269.784 115.836 268.536 117.436 268.536ZM130.467 283.256C133.539 283.256 135.523 281.304 135.523 278.808V278.456C135.523 278.264 135.395 278.136 135.203 278.136L133.571 278.104C133.379 278.104 133.251 278.232 133.251 278.424V278.648C133.251 280.024 132.131 281.272 130.467 281.272C128.867 281.272 127.747 280.024 127.747 278.2V271.608C127.747 269.784 128.867 268.536 130.467 268.536C132.131 268.536 133.251 269.784 133.251 271.16V271.416C133.251 271.576 133.379 271.704 133.571 271.704L135.203 271.64C135.395 271.64 135.523 271.512 135.523 271.32V271C135.523 268.6 133.539 266.552 130.467 266.552C127.427 266.552 125.475 268.6 125.475 271.448V278.36C125.475 281.304 127.427 283.256 130.467 283.256ZM144.304 268.184V267.128C144.304 266.936 144.176 266.808 143.984 266.808H141.552C141.488 266.808 141.424 266.744 141.424 266.68V263.096C141.424 262.904 141.296 262.776 141.104 262.776H139.504C139.312 262.776 139.184 262.904 139.184 263.096V266.68C139.184 266.744 139.12 266.808 139.056 266.808H137.808C137.616 266.808 137.488 266.936 137.488 267.128V268.184C137.488 268.376 137.616 268.504 137.808 268.504H139.056C139.12 268.504 139.184 268.568 139.184 268.632V279.096C139.184 282.328 140.752 283 143.024 283H143.824C144.016 283 144.144 282.872 144.144 282.68V281.304C144.144 281.112 144.016 280.984 143.824 280.984H143.504C142.16 281.016 141.424 280.472 141.424 278.424V268.632C141.424 268.568 141.488 268.504 141.552 268.504H143.984C144.176 268.504 144.304 268.376 144.304 268.184ZM154.532 267.128V277.784C154.532 279.928 153.508 281.24 151.812 281.24C150.18 281.24 149.252 280.184 149.252 278.008V267.128C149.252 266.936 149.124 266.808 148.932 266.808H147.299C147.108 266.808 146.98 266.936 146.98 267.128V278.52C146.98 281.784 148.74 283.224 151.172 283.224C152.548 283.224 153.668 282.744 154.372 281.56C154.436 281.464 154.532 281.464 154.532 281.592V282.68C154.532 282.872 154.66 283 154.852 283H156.484C156.676 283 156.804 282.872 156.804 282.68V267.128C156.804 266.936 156.676 266.808 156.484 266.808H154.852C154.66 266.808 154.532 266.936 154.532 267.128ZM166.174 266.648C164.638 266.648 163.678 267.64 163.134 269.08C163.07 269.176 162.974 269.176 162.974 269.048V267.128C162.974 266.936 162.846 266.808 162.654 266.808H161.022C160.83 266.808 160.702 266.936 160.702 267.128V282.68C160.702 282.872 160.83 283 161.022 283H162.654C162.846 283 162.974 282.872 162.974 282.68V273.08C162.974 270.904 164.062 269.208 165.598 269.112C166.11 269.016 166.59 269.08 166.942 269.24C167.166 269.304 167.326 269.272 167.358 269.048L167.71 267.416C167.742 267.256 167.71 267.096 167.55 267C167.23 266.808 166.814 266.648 166.174 266.648ZM179.616 275.448V271.448C179.616 268.568 177.696 266.552 174.592 266.552C171.552 266.552 169.6 268.568 169.6 271.448V278.36C169.6 281.304 171.552 283.256 174.592 283.256C177.408 283.256 179.168 281.656 179.52 279.16C179.552 278.968 179.424 278.808 179.232 278.808L177.632 278.744C177.44 278.744 177.344 278.84 177.28 279.032C176.992 280.344 176 281.272 174.592 281.272C172.992 281.272 171.872 280.024 171.872 278.232V275.896C171.872 275.832 171.936 275.768 172 275.768H179.296C179.488 275.768 179.616 275.64 179.616 275.448ZM174.592 268.536C176.256 268.536 177.376 269.784 177.376 271.608V273.752C177.376 273.816 177.312 273.88 177.248 273.88H172C171.936 273.88 171.872 273.816 171.872 273.752V271.608C171.872 269.784 172.992 268.536 174.592 268.536ZM184.077 282.904C185.069 282.904 185.837 282.072 185.837 281.016C185.837 279.96 185.005 279.128 184.077 279.128C183.181 279.128 182.349 279.96 182.349 281.016C182.349 282.072 183.085 282.904 184.077 282.904Z" fill="white"/>
<defs>
<filter id="filter0_d_23_295" x="0" y="0" width="576" height="483" filterUnits="userSpaceOnUse" color-interpolation-filters="sRGB">
<feFlood flood-opacity="0" result="BackgroundImageFix"/>
<feColorMatrix in="SourceAlpha" type="matrix" values="0 0 0 0 0 0 0 0 0 0 0 0 0 0 0 0 0 0 127 0" result="hardAlpha"/>
<feMorphology radius="3" operator="erode" in="SourceAlpha" result="effect1_dropShadow_23_295"/>
<feOffset dy="26"/>
<feGaussianBlur stdDeviation="2.5"/>
<feComposite in2="hardAlpha" operator="out"/>
<feColorMatrix type="matrix" values="0 0 0 0 0 0 0 0 0 0 0 0 0 0 0 0 0 0 0.5 0"/>
<feBlend mode="normal" in2="BackgroundImageFix" result="effect1_dropShadow_23_295"/>
<feBlend mode="normal" in="SourceGraphic" in2="effect1_dropShadow_23_295" result="shape"/>
</filter>
</defs>
</svg>
